
<svg xmlns="http://www.w3.org/2000/svg" viewBox="0 0 55 55">
	<style type="text/css">
		.st0{fill:#C1272D;filter:url(#dropshadow);}
		.st1{opacity:0.65;}
		.st2{fill:#FFFFFF;}
		.st3{fill:#F2F2F2;}
		.st4{opacity:0.5;fill:url(#SVGID_1_);}
		.st5{opacity:0.5;fill:url(#SVGID_2_);}
		.st6{opacity:0.5;fill:url(#SVGID_3_);}
		.st7{opacity:0.3;fill:url(#SVGID_4_);enable-background:new    ;}
	</style>
	<filter x="-6.1%" y="-3.9%" width="112.1%" height="113.2%" filterUnits="objectBoundingBox" id="dropshadow">
		<feOffset dx="0" dy="1" in="SourceAlpha" result="numbersShadowOffsetOuter1"></feOffset>
		<feGaussianBlur stdDeviation=".5" in="numbersShadowOffsetOuter2" result="numbersShadowBlurOuter2"></feGaussianBlur>
		<feColorMatrix values="0 0 0 0 0   0 0 0 0 0   0 0 0 0 0  0 0 0 0.5 0" type="matrix" in="numbersShadowBlurOuter2" result="numbersShadowMatrixOuter2"></feColorMatrix>
		<feMerge>
			<feMergeNode in="numbersShadowMatrixOuter2"></feMergeNode>
			<feMergeNode in="SourceGraphic"></feMergeNode>
		</feMerge>
	</filter>
	<circle class="st0" cx="27.5" cy="26.5" r="25.5"/>
	<g id="inner" class="st1">
		<path class="st2" d="M17.4,17.3l-3.1-1.8c-1.2,1.5-2.2,3.2-2.9,5l3,1.8C15.1,20.4,16.1,18.7,17.4,17.3z"/>
		<path class="st2" d="M27.5,12.8c1,0,1.9,0.1,2.9,0.3V9.7c-1-0.1-1.9-0.2-2.9-0.2s-1.9,0.1-2.9,0.2v3.5
			C25.6,12.9,26.5,12.8,27.5,12.8z"/>
		<path class="st2" d="M40.5,22.3l3-1.8c-0.6-1.8-1.6-3.5-2.9-5l-3.1,1.8C38.9,18.7,39.9,20.4,40.5,22.3z"/>
		<path class="st2" d="M13.8,26.5c0-1,0.1-2,0.3-2.9h-3.4c-0.1,1-0.2,1.9-0.2,2.9c0,1,0.1,1.9,0.2,2.9h3.4
			C13.9,28.4,13.8,27.5,13.8,26.5z"/>
		<path class="st2" d="M36.6,16.4l1.8-3.1c-1.5-1.2-3.2-2.2-5-2.9l-1.8,3.1C33.5,14.1,35.2,15.1,36.6,16.4z"/>
		<path class="st2" d="M23.3,13.5l-1.8-3.1c-1.8,0.6-3.5,1.6-5,2.9l1.8,3.1C19.8,15.1,21.5,14.1,23.3,13.5z"/>
		<path class="st2" d="M31.7,39.5l1.7,3c1.8-0.6,3.5-1.6,5-2.9l-1.8-3C35.3,37.9,33.6,38.9,31.7,39.5z"/>
		<path class="st2" d="M37.6,35.6l3,1.8c1.2-1.5,2.2-3.2,2.9-5l-3-1.7C39.9,32.5,38.9,34.2,37.6,35.6z"/>
		<path class="st2" d="M44.3,23.6h-3.4c0.2,0.9,0.3,1.9,0.3,2.9c0,1-0.1,1.9-0.3,2.8h3.4c0.1-0.8,0.2-1.9,0.2-2.9
			C44.5,25.5,44.4,24.5,44.3,23.6z"/>
		<path class="st2" d="M14.5,30.6l-3,1.7c0.6,1.8,1.6,3.5,2.9,5l3-1.8C16.1,34.2,15.1,32.5,14.5,30.6z"/>
		<path class="st2" d="M27.5,40.2c-1,0-1.9-0.1-2.9-0.3v3.5c1,0.1,1.9,0.2,2.9,0.2s1.9-0.1,2.9-0.3v-3.4
			C29.4,40.1,28.5,40.2,27.5,40.2z"/>
		<path class="st2" d="M18.3,36.6l-1.8,3c1.5,1.2,3.2,2.2,5,2.9l1.7-3C21.4,38.9,19.7,37.9,18.3,36.6z"/>
	</g>
	<g id="outer">
		<path class="st3" d="M23.7,8.2c1.2-0.2,2.4-0.4,3.7-0.4c1.3,0,2.5,0.1,3.7,0.4l0,0c0.7,0.1,1.4-0.4,1.4-1.1V1.5
			C31,1.1,29.3,1,27.6,1c-1.8,0-3.5,0.2-5.1,0.5v5.6C22.4,7.8,23.1,8.3,23.7,8.2L23.7,8.2z"/>
		<path class="st3" d="M31.3,44.8c-1.2,0.2-2.4,0.4-3.7,0.4c-1.3,0-2.5-0.1-3.7-0.4l0,0c-0.7-0.1-1.4,0.4-1.4,1.1v5.6
			c1.6,0.4,3.3,0.5,5,0.5c1.8,0,3.5-0.2,5.1-0.5v-5.6C32.6,45.2,31.9,44.7,31.3,44.8L31.3,44.8z"/>
		<path class="st3" d="M45.2,32.4c-0.4,1.1-0.9,2.3-1.5,3.4c-0.6,1.1-1.4,2.2-2.2,3l0,0c-0.5,0.6-0.3,1.4,0.2,1.7l4.9,2.8
			c1.2-1.2,2.1-2.6,3-4.1c0.9-1.6,1.6-3.1,2.1-4.7l-4.9-2.8C46.2,31.4,45.4,31.8,45.2,32.4L45.2,32.4z"/>
		<path class="st3" d="M9.8,20.6c0.4-1.1,0.9-2.3,1.5-3.4c0.6-1.1,1.4-2.2,2.2-3l0,0c0.5-0.6,0.3-1.4-0.2-1.7L8.5,9.6
			c-1.2,1.2-2.1,2.6-3,4.1c-0.9,1.6-1.6,3.1-2.1,4.7l4.9,2.8C8.8,21.6,9.6,21.2,9.8,20.6L9.8,20.6z"/>
		<path class="st3" d="M41.5,14.1c0.8,0.9,1.6,1.9,2.2,3c0.6,1.1,1.2,2.3,1.5,3.4l0,0c0.3,0.7,1.1,1,1.6,0.7l4.9-2.8
			c-0.4-1.6-1.2-3.1-2-4.6c-0.9-1.6-1.9-2.9-3-4.2l-4.9,2.8C41.2,12.7,41.1,13.6,41.5,14.1L41.5,14.1z"/>
		<path class="st3" d="M13.5,38.8c-0.8-0.9-1.6-1.9-2.2-3c-0.6-1.1-1.2-2.3-1.5-3.4l0,0c-0.3-0.7-1.1-1-1.6-0.7l-4.9,2.8
			c0.4,1.6,1.2,3.1,2,4.6c0.9,1.6,1.9,2.9,3,4.2l4.9-2.8C13.8,40.3,13.9,39.3,13.5,38.8L13.5,38.8z"/>
	</g>
	<circle id="center" class="st0" cx="27.5" cy="26.5" r="13.7"/>
	<linearGradient id="SVGID_1_" gradientUnits="userSpaceOnUse" x1="27.5" y1="1.0165" x2="27.5" y2="51.9835">
		<stop  offset="0" style="stop-color:#FFFFFF"/>
		<stop  offset="1" style="stop-color:#3A0000"/>
	</linearGradient>
	<path class="st4" d="M27.5,1C13.4,1,2,12.4,2,26.5C2,40.6,13.4,52,27.5,52S53,40.6,53,26.5C53,12.4,41.6,1,27.5,1z M27.5,51.2
		c-13.7,0-24.7-11.1-24.7-24.7c0-13.7,11.1-24.7,24.7-24.7s24.7,11.1,24.7,24.7C52.2,40.2,41.2,51.2,27.5,51.2z"/>
	<linearGradient id="SVGID_2_" gradientUnits="userSpaceOnUse" x1="27.5" y1="44.5907" x2="27.5" y2="8.4048">
		<stop  offset="0" style="stop-color:#FFFFFF"/>
		<stop  offset="1" style="stop-color:#400000"/>
	</linearGradient>
	<path class="st5" d="M27.5,8.4c-10,0-18.1,8.1-18.1,18.1c0,10,8.1,18.1,18.1,18.1s18.1-8.1,18.1-18.1C45.6,16.5,37.5,8.4,27.5,8.4z
		 M27.5,43.9c-9.6,0-17.4-7.8-17.4-17.4c0-9.6,7.8-17.4,17.4-17.4s17.4,7.8,17.4,17.4C44.9,36.1,37.1,43.9,27.5,43.9z"/>
	<linearGradient id="SVGID_3_" gradientUnits="userSpaceOnUse" x1="27.5" y1="38.9606" x2="27.5" y2="11.6309" gradientTransform="matrix(-1 0 0 -1 55 51.7957)">
		<stop  offset="0" style="stop-color:#FFFFFF"/>
		<stop  offset="1" style="stop-color:#240000"/>
	</linearGradient>
	<path class="st6" d="M27.5,40.2c7.5,0,13.7-6.1,13.7-13.7c0-7.5-6.1-13.7-13.7-13.7S13.8,19,13.8,26.5C13.8,34,20,40.2,27.5,40.2z
		 M27.5,13.4c7.2,0,13.1,5.9,13.1,13.1c0,7.2-5.9,13.1-13.1,13.1s-13.1-5.9-13.1-13.1C14.4,19.3,20.3,13.4,27.5,13.4z"/>
	<radialGradient id="SVGID_4_" cx="27.3926" cy="29.3916" r="17.3061" gradientTransform="matrix(1 0 0 -1 0 55.8898)" gradientUnits="userSpaceOnUse">
		<stop  offset="0.7924" style="stop-color:#FFFFFF;stop-opacity:0"/>
		<stop  offset="0.8375" style="stop-color:#6A0000;stop-opacity:0"/>
		<stop  offset="0.9328" style="stop-color:#FFFFFF"/>
		<stop  offset="0.9432" style="stop-color:#FCFCFC"/>
		<stop  offset="0.9519" style="stop-color:#F1F1F1"/>
		<stop  offset="0.96" style="stop-color:#E0E0E0"/>
		<stop  offset="0.9677" style="stop-color:#C7C7C7"/>
		<stop  offset="0.9752" style="stop-color:#A8A8A8"/>
		<stop  offset="0.9824" style="stop-color:#818181"/>
		<stop  offset="0.9896" style="stop-color:#535353"/>
		<stop  offset="0.9964" style="stop-color:#1F1F1F"/>
		<stop  offset="1" style="stop-color:#000000"/>
	</radialGradient>
	<path class="st7" d="M44.7,26.5c0,1-0.1,1.9-0.2,2.9c-0.1,0.9-0.3,1.7-0.6,2.6c-0.1,0.2-0.1,0.3-0.2,0.5c-0.6,1.8-1.7,3.6-2.9,5.1
		c-0.1,0.1-0.2,0.3-0.3,0.4c-0.5,0.6-1.2,1.3-1.8,1.8c-1.5,1.3-3.2,2.3-5.1,2.9c-0.9,0.3-1.6,0.5-2.5,0.8c-0.2,0-0.3,0.1-0.5,0.1
		c-1.1,0.1-2,0.2-3,0.2s-1.9-0.1-2.9-0.2c-0.2,0-0.3-0.1-0.5-0.1c-0.9-0.2-1.7-0.4-2.5-0.8c-1.8-0.6-3.6-1.7-5.1-2.9
		c-0.6-0.5-1.3-1.2-1.8-1.8c-0.1-0.1-0.2-0.3-0.3-0.4c-1.3-1.5-2.3-3.2-2.9-5.1c-0.1-0.2-0.1-0.3-0.2-0.5c-0.3-0.9-0.5-1.7-0.6-2.6
		c-0.1-1-0.2-1.9-0.2-2.9c0-1,0.1-1.9,0.2-2.9c0.1-0.9,0.3-1.7,0.6-2.6c0.1-0.2,0.1-0.3,0.2-0.5c0.6-1.8,1.7-3.6,2.9-5.1
		c0.1-0.1,0.2-0.3,0.3-0.4c0.5-0.6,1.2-1.3,1.8-1.8c1.5-1.3,3.2-2.3,5.1-2.9c0.9-0.3,1.6-0.5,2.5-0.8c0.2,0,0.3-0.1,0.5-0.1
		c1-0.1,1.9-0.2,2.9-0.2c1,0,1.9,0.1,2.9,0.2c0.2,0,0.3,0.1,0.5,0.1c0.9,0.2,1.7,0.4,2.5,0.8c1.8,0.6,3.6,1.7,5.1,2.9
		c0.6,0.5,1.3,1.2,1.8,1.8c0.1,0.1,0.2,0.3,0.3,0.4c1.3,1.5,2.3,3.2,2.9,5.1c0.1,0.2,0.1,0.3,0.2,0.5c0.3,0.9,0.5,1.7,0.6,2.6
		C44.6,24.6,44.7,25.5,44.7,26.5z"/>
</svg>
