
<svg id="chip-red" viewBox="0 0 19 19">
	<style type="text/css">
		.st0{fill:#C1272D;}
		.st1{opacity:0.65;}
		.st2{fill:#FFFFFF;}
		.st3{fill:#F2F2F2;}
		.st4{opacity:0.5;fill:url(#SVGID_1_);enable-background:new    ;}
		.st5{opacity:0.5;fill:url(#SVGID_2_);enable-background:new    ;}
		.st6{opacity:0.5;fill:url(#SVGID_3_);enable-background:new    ;}
		.st7{opacity:0.3;fill:url(#SVGID_4_);enable-background:new    ;}
	</style>
	<circle class="st0" cx="9.5" cy="9.5" r="9.5"/>
	<g id="inner" class="st1">
		<path class="st2" d="M5.7,6.1L4.6,5.4C4.1,6,3.8,6.6,3.5,7.3l1.1,0.7C4.9,7.2,5.3,6.6,5.7,6.1z"/>
		<path class="st2" d="M9.5,4.4c0.4,0,0.7,0,1.1,0.1V3.2c-0.4,0-0.7-0.1-1.1-0.1s-0.7,0-1.1,0.1v1.3C8.8,4.4,9.1,4.4,9.5,4.4z"/>
		<path class="st2" d="M14.3,7.9l1.1-0.7c-0.2-0.7-0.6-1.3-1.1-1.9l-1.2,0.7C13.7,6.6,14.1,7.2,14.3,7.9z"/>
		<path class="st2" d="M4.4,9.5c0-0.4,0-0.7,0.1-1.1H3.2c0,0.4-0.1,0.7-0.1,1.1s0,0.7,0.1,1.1h1.3C4.4,10.2,4.4,9.9,4.4,9.5z"/>
		<path class="st2" d="M12.9,5.7l0.7-1.2c-0.6-0.4-1.2-0.8-1.9-1.1L11,4.7C11.7,4.9,12.4,5.3,12.9,5.7z"/>
		<path class="st2" d="M7.9,4.7L7.3,3.5C6.6,3.7,6,4.1,5.4,4.6l0.7,1.2C6.6,5.3,7.3,4.9,7.9,4.7z"/>
		<path class="st2" d="M11.1,14.3l0.6,1.1c0.7-0.2,1.3-0.6,1.9-1.1l-0.7-1.1C12.4,13.7,11.8,14.1,11.1,14.3z"/>
		<path class="st2" d="M13.3,12.9l1.1,0.7c0.4-0.6,0.8-1.2,1.1-1.9l-1.1-0.6C14.1,11.7,13.7,12.4,13.3,12.9z"/>
		<path class="st2" d="M15.8,8.4h-1.3c0.1,0.3,0.1,0.7,0.1,1.1s0,0.7-0.1,1h1.3c0-0.3,0.1-0.7,0.1-1.1C15.8,9.1,15.8,8.8,15.8,8.4z"
			/>
		<path class="st2" d="M4.7,11l-1.1,0.6c0.2,0.7,0.6,1.3,1.1,1.9l1.1-0.7C5.3,12.4,4.9,11.7,4.7,11z"/>
		<path class="st2" d="M9.5,14.6c-0.4,0-0.7,0-1.1-0.1v1.3c0.4,0,0.7,0.1,1.1,0.1s0.7,0,1.1-0.1v-1.3C10.2,14.6,9.9,14.6,9.5,14.6z"
			/>
		<path class="st2" d="M6.1,13.3l-0.7,1.1c0.6,0.4,1.2,0.8,1.9,1.1l0.6-1.1C7.2,14.1,6.6,13.7,6.1,13.3z"/>
	</g>
	<g id="outer">
		<path class="st3" d="M8.1,2.7C8.5,2.6,9,2.5,9.5,2.5c0.5,0,0.9,0,1.4,0.1l0,0c0.3,0,0.5-0.1,0.5-0.4V0.2C10.8,0,10.2,0,9.5,0
			C8.9,0,8.2,0.1,7.6,0.2v2.1C7.6,2.5,7.9,2.7,8.1,2.7L8.1,2.7z"/>
		<path class="st3" d="M10.9,16.3c-0.4,0.1-0.9,0.1-1.4,0.1c-0.5,0-0.9,0-1.4-0.1l0,0c-0.3,0-0.5,0.1-0.5,0.4v2.1
			C8.2,19,8.9,19,9.5,19c0.7,0,1.3-0.1,1.9-0.2v-2.1C11.4,16.5,11.1,16.3,10.9,16.3L10.9,16.3z"/>
		<path class="st3" d="M16.1,11.7c-0.1,0.4-0.3,0.9-0.6,1.3c-0.2,0.4-0.5,0.8-0.8,1.1l0,0c-0.2,0.2-0.1,0.5,0.1,0.6l1.8,1
			c0.4-0.4,0.8-1,1.1-1.5c0.3-0.6,0.6-1.2,0.8-1.8l-1.8-1C16.5,11.3,16.2,11.5,16.1,11.7L16.1,11.7z"/>
		<path class="st3" d="M2.9,7.3C3.1,6.9,3.2,6.4,3.5,6C3.7,5.6,4,5.2,4.3,4.9l0,0c0.2-0.2,0.1-0.5-0.1-0.6L2.4,3.2
			C2,3.7,1.6,4.2,1.3,4.7C1,5.3,0.7,5.9,0.5,6.5l1.8,1C2.5,7.7,2.8,7.5,2.9,7.3L2.9,7.3z"/>
		<path class="st3" d="M14.7,4.9C15,5.2,15.3,5.6,15.5,6c0.2,0.4,0.4,0.9,0.6,1.3l0,0c0.1,0.3,0.4,0.4,0.6,0.3l1.8-1
			c-0.1-0.6-0.4-1.2-0.7-1.7c-0.3-0.6-0.7-1.1-1.1-1.6l-1.8,1C14.6,4.4,14.6,4.7,14.7,4.9L14.7,4.9z"/>
		<path class="st3" d="M4.3,14.1C4,13.7,3.7,13.4,3.5,13c-0.2-0.4-0.4-0.9-0.6-1.3l0,0c-0.1-0.3-0.4-0.4-0.6-0.3l-1.8,1
			c0.1,0.6,0.4,1.2,0.7,1.7c0.3,0.6,0.7,1.1,1.1,1.6l1.8-1C4.4,14.6,4.4,14.3,4.3,14.1L4.3,14.1z"/>
	</g>
	<circle id="center" class="st0" cx="9.5" cy="9.5" r="5.1"/>
	<linearGradient id="SVGID_1_" gradientUnits="userSpaceOnUse" x1="9.5" y1="19.8898" x2="9.5" y2="0.8898" gradientTransform="matrix(1 0 0 -1 0 19.8898)">
		<stop  offset="0" style="stop-color:#FFFFFF"/>
		<stop  offset="1" style="stop-color:#3A0000"/>
	</linearGradient>
	<path class="st4" d="M9.5,0C4.2,0,0,4.2,0,9.5S4.2,19,9.5,19S19,14.8,19,9.5S14.8,0,9.5,0z M9.5,18.7c-5.1,0-9.2-4.1-9.2-9.2
		c0-5.1,4.1-9.2,9.2-9.2s9.2,4.1,9.2,9.2C18.7,14.6,14.6,18.7,9.5,18.7z"/>
	<linearGradient id="SVGID_2_" gradientUnits="userSpaceOnUse" x1="9.5" y1="3.6466" x2="9.5" y2="17.1329" gradientTransform="matrix(1 0 0 -1 0 19.8898)">
		<stop  offset="0" style="stop-color:#FFFFFF"/>
		<stop  offset="1" style="stop-color:#400000"/>
	</linearGradient>
	<path class="st5" d="M9.5,2.8c-3.7,0-6.7,3-6.7,6.7s3,6.7,6.7,6.7s6.7-3,6.7-6.7S13.2,2.8,9.5,2.8z M9.5,16C5.9,16,3,13.1,3,9.5
		S5.9,3,9.5,3S16,5.9,16,9.5S13.1,16,9.5,16z"/>
	<linearGradient id="SVGID_3_" gradientUnits="userSpaceOnUse" x1="-530.5" y1="794.5032" x2="-530.5" y2="804.6849" gradientTransform="matrix(-1 0 0 1 -521 -790.0941)">
		<stop  offset="0" style="stop-color:#FFFFFF"/>
		<stop  offset="1" style="stop-color:#240000"/>
	</linearGradient>
	<path class="st6" d="M9.5,14.6c2.8,0,5.1-2.3,5.1-5.1c0-2.8-2.3-5.1-5.1-5.1S4.4,6.7,4.4,9.5S6.7,14.6,9.5,14.6z M9.5,4.6
		c2.7,0,4.9,2.2,4.9,4.9s-2.2,4.9-4.9,4.9s-4.9-2.2-4.9-4.9C4.6,6.8,6.8,4.6,9.5,4.6z"/>
	<radialGradient id="SVGID_4_" cx="9.46" cy="795.4999" r="6.4465" gradientTransform="matrix(1 0 0 1 0 -786)" gradientUnits="userSpaceOnUse">
		<stop  offset="0.7924" style="stop-color:#FFFFFF;stop-opacity:0"/>
		<stop  offset="0.8375" style="stop-color:#6A0000;stop-opacity:0"/>
		<stop  offset="0.9328" style="stop-color:#FFFFFF"/>
		<stop  offset="0.9432" style="stop-color:#FCFCFC"/>
		<stop  offset="0.9519" style="stop-color:#F1F1F1"/>
		<stop  offset="0.96" style="stop-color:#E0E0E0"/>
		<stop  offset="0.9677" style="stop-color:#C7C7C7"/>
		<stop  offset="0.9752" style="stop-color:#A8A8A8"/>
		<stop  offset="0.9824" style="stop-color:#818181"/>
		<stop  offset="0.9896" style="stop-color:#535353"/>
		<stop  offset="0.9964" style="stop-color:#1F1F1F"/>
		<stop  offset="1" style="stop-color:#000000"/>
	</radialGradient>
	<path class="st7" d="M15.9,9.5c0,0.4,0,0.7-0.1,1.1c0,0.3-0.1,0.6-0.2,1c0,0.1,0,0.1-0.1,0.2c-0.2,0.7-0.6,1.3-1.1,1.9
		c0,0-0.1,0.1-0.1,0.1c-0.2,0.2-0.4,0.5-0.7,0.7c-0.6,0.5-1.2,0.9-1.9,1.1c-0.3,0.1-0.6,0.2-0.9,0.3c-0.1,0-0.1,0-0.2,0
		c-0.4,0-0.7,0.1-1.1,0.1c-0.4,0-0.7,0-1.1-0.1c-0.1,0-0.1,0-0.2,0c-0.3-0.1-0.6-0.1-0.9-0.3c-0.7-0.2-1.3-0.6-1.9-1.1
		C5.2,14.3,5,14,4.8,13.8c0,0-0.1-0.1-0.1-0.1c-0.5-0.6-0.9-1.2-1.1-1.9c0-0.1,0-0.1-0.1-0.2c-0.1-0.3-0.2-0.6-0.2-1
		c0-0.4-0.1-0.7-0.1-1.1s0-0.7,0.1-1.1c0-0.3,0.1-0.6,0.2-1c0-0.1,0-0.1,0.1-0.2c0.2-0.7,0.6-1.3,1.1-1.9c0,0,0.1-0.1,0.1-0.1
		C5,5,5.2,4.7,5.4,4.5C6,4.1,6.6,3.7,7.3,3.5c0.3-0.1,0.6-0.2,0.9-0.3c0.1,0,0.1,0,0.2,0c0.4,0,0.7-0.1,1.1-0.1c0.4,0,0.7,0,1.1,0.1
		c0.1,0,0.1,0,0.2,0c0.3,0.1,0.6,0.1,0.9,0.3c0.7,0.2,1.3,0.6,1.9,1.1c0.2,0.2,0.5,0.4,0.7,0.7c0,0,0.1,0.1,0.1,0.1
		c0.5,0.6,0.9,1.2,1.1,1.9c0,0.1,0,0.1,0.1,0.2c0.1,0.3,0.2,0.6,0.2,1C15.9,8.8,15.9,9.1,15.9,9.5z"/>
</svg>
