<svg xmlns="http://www.w3.org/2000/svg" width="0" height="0">

	@import "chip-red.svg"
	@import "card-back.svg"
	@import "card-diamonds.svg"
	@import "card-spades.svg"
	@import "card-hearts.svg"
	@import "card-clubs.svg"

	<svg id="user-placeholder" viewBox="0 0 74 59">
		<style type="text/css">
			.st0{fill:url(#SVGID_1_);}
			.st1{fill:#fff;}
		</style>
		<radialGradient id="SVGID_1_" cx="37" cy="29.5" r="33.4608" gradientUnits="userSpaceOnUse">
			<stop  offset="0" style="stop-color:#CFD4EF"/>
			<stop  offset="1" style="stop-color:#7F849F"/>
		</radialGradient>
		<rect y="0" class="st0" width="74" height="59"/>
		<path class="st1" d="M65.5,59h-58l1.1-1.5c1.1-1.2,2.6-2.2,4.5-2.8c5.5-2.5,7.8-2.9,10.8-3.4s3.8-1.6,4.2-4.4
			c0.4-2.8,0.7-3.1,0.7-4.5c-1.8-1.2-2.4-3.5-2.5-4.8c-0.1-1.2-0.6-2.6-0.5-3.8c-1.7,0.4-1.5-1.7-2-2.9c-0.2-0.4-1.1-3.1-1.3-4.7
			c-0.2-1.5,0.3-2.2,1.3-1.5c-0.9-2.9-0.7-5.6-0.9-7.5c-0.2-1.9-1.1-6.7,2.4-7.6c1.2-0.4,2-2.2,4.2-2.9C31.7,6,34,4.6,36.5,4.6
			c2.6,0,4.8,1.4,6.9,2.1c2.1,0.7,2.9,2.5,4.2,2.9c3.5,0.9,2.6,5.7,2.4,7.6c-0.2,1.9,0.1,4.6-0.9,7.5c1.1-0.7,1.5,0,1.3,1.5
			s-1.1,4.2-1.3,4.7c-0.5,1.2-0.3,3.3-2,2.9c0.1,1.2-0.4,2.5-0.5,3.8c-0.1,1.2-0.7,3.5-2.5,4.8c0,1.3,0.3,1.7,0.7,4.5s1.1,3.9,4.2,4.4
			c3,0.5,6.4,1.2,10.8,3.4c1.9,0.7,3.4,1.7,4.5,2.8L65.5,59z"/>
	</svg>

	<svg id="holdem-logo-poker" viewBox="0 0 286 103" cache="keep">
		<style type="text/css">
			.st0{fill:#ccc;}
		</style>
		<path class="st0" d="M0,51.2c0-5.8,1.6-10.9,4.6-15.5c3-4.7,7.1-8.4,12.2-11c5.1-2.7,10.5-4.1,16.3-4.1c4.4,0,8.6,0.8,12.5,2.3
			c3.9,1.4,7.5,3.6,10.7,6.5c3.2,2.9,5.6,6.2,7.3,9.9c1.7,3.7,2.6,7.8,2.6,12.3c0,4.4-0.9,8.4-2.6,12.2c-1.7,3.8-4.2,7-7.3,9.9
			c-3.1,2.9-6.7,5-10.7,6.5c-4,1.5-8.2,2.2-12.5,2.2c-4.2,0-8.4-0.7-12.5-2.2l-1.3-0.6L18,79v23.8l-18-0.1V51.2z M18,51.5
			c0,2.7,0.7,5.1,2.1,7.2c1.4,2.2,3.3,4,5.6,5.3c2.3,1.3,4.8,2,7.4,2c2.6,0,5.1-0.7,7.4-2c2.3-1.3,4.2-3.1,5.6-5.3
			c1.4-2.2,2.1-4.6,2.1-7.2c0-4-1.5-7.4-4.5-10.4c-3-2.9-6.5-4.3-10.6-4.3c-4.1,0-7.6,1.4-10.5,4.3C19.5,44.1,18,47.5,18,51.5z"/>
		<path class="st0" d="M85.7,78.4c-5.1-2.7-9.2-6.4-12.2-11.1c-3-4.7-4.6-10-4.6-15.9c0-4.4,0.9-8.5,2.6-12.3c1.8-3.8,4.2-7.1,7.3-9.9
			c3.1-2.8,6.7-5,10.7-6.5c4.1-1.5,8.2-2.3,12.5-2.3c4.3,0,8.5,0.8,12.5,2.3c3.9,1.4,7.5,3.6,10.7,6.4c3.1,2.9,5.5,6.2,7.3,9.9
			c1.8,3.8,2.6,7.9,2.6,12.3c0,4.5-0.9,8.6-2.6,12.3c-1.7,3.8-4.2,7.1-7.3,10c-3.2,2.9-6.7,5-10.7,6.5c-3.9,1.5-8.1,2.3-12.5,2.3
			C96.2,82.4,90.8,81.1,85.7,78.4z M91.4,61.8c3,2.9,6.5,4.3,10.5,4.3c4.1,0,7.6-1.4,10.6-4.3c3-2.9,4.5-6.4,4.5-10.4
			c0-2.6-0.7-5.1-2.1-7.3c-1.4-2.2-3.3-4-5.6-5.3c-2.3-1.3-4.8-2-7.4-2c-2.6,0-5.1,0.7-7.4,2c-2.3,1.3-4.2,3.1-5.6,5.3
			c-1.4,2.2-2.1,4.6-2.1,7.3C86.9,55.4,88.4,58.9,91.4,61.8z"/>
		<path class="st0" d="M137.9,80.6V0.6l18-0.1v44.2h0.2l18.7-21.9H196l-20.9,24.7l24.5,32.9h-22.5l-21.2-28.3v28.3H137.9z"/>
		<path class="st0" d="M253,39.1c1.7,3.8,2.5,7.9,2.5,12.2v0.5c0,0.2,0,0.4-0.1,0.6l-0.1,1h-7v0.1h-38.8c0.5,3.2,1.8,5.9,4.1,8.2
			c2.9,2.9,6.3,4.3,10.1,4.3c3.9,0,7.3-1.4,10.1-4.3l0.1-0.1l0.2-0.2l0.2-0.2l0.1-0.2l9.7,13.9c-2.8,2.3-5.6,4-8.5,5.1
			c-3.8,1.5-7.8,2.3-12,2.3c-5.6,0-10.8-1.3-15.6-4c-4.9-2.7-8.8-6.4-11.7-11.1c-2.9-4.7-4.4-10-4.4-15.8c0-4.4,0.8-8.5,2.5-12.2
			c1.7-3.8,4-7,7-9.8c3-2.9,6.4-5,10.1-6.5c3.9-1.5,7.9-2.3,12-2.3c4.1,0,8.1,0.8,12,2.3c3.8,1.5,7.2,3.6,10.2,6.4
			C249,32,251.3,35.3,253,39.1z M223.9,36.9c-2.5,0-4.9,0.6-7.1,1.9c-1.4,0.8-2.7,2-3.9,3.5h22.1c-1.3-1.5-2.6-2.7-3.9-3.5
			C228.8,37.5,226.4,36.9,223.9,36.9z"/>
		<path class="st0" d="M288,37.9c-0.9-0.6-2.2-1-3.7-1.1h-1c-4.6,0.2-6.9,3.4-6.9,9.6v34.2h-18V46.4c0-16.4,8.3-25,24.9-25.9h1
			c1.2,0,2.5,0.2,3.7,0.3V37.9z"/>
	</svg>

	<svg id="holdem-logo-holdem" viewBox="0 0 262 103" cache="keep">
		<style type="text/css">
			.st1{fill:#fff;}
		</style>
		<path class="st1" d="M142.8,32.3c-0.2-0.9-0.2-1.6-0.1-2.1c0.1-0.5,0.2-0.9,0.1-1.3c0.6-1,1.1-2.1,1.5-3.2c0.4-1.1,1-2,1.5-3
			c0.6-1.3,1.1-2.6,1.7-3.9c0.5-1.3,1.1-2.5,1.7-3.5c0.4-0.1,0.8-0.2,1.2-0.4c0.4-0.2,0.8-0.6,1-1.1c0.5-0.1,0.9-0.3,1.2-0.6
			c0.4-0.3,0.8-0.5,1.3-0.7c0.7-0.2,1.2,0.1,1.4,0.7c0.3,0.6,0.4,1.2,0.5,1.6l0.3,1.5l0.4,1.7c0.2,0.8,0.2,1.5,0.2,2
			c-0.1,0.5-0.2,1.1-0.5,1.6c-0.3,0.5-0.6,1.1-1,1.6c-0.4,0.6-0.9,1.3-1.4,2.1c-0.6,1-1.1,2-1.5,2.9c-0.4,0.9-0.9,1.9-1.5,2.9
			c-0.3,0.5-0.5,1-0.5,1.4c0,0.4-0.2,0.9-0.4,1.4c-0.3,0.8-0.5,1.5-0.8,2c-0.3,0.5-0.6,1-0.9,1.5c-0.3,0.5-0.5,1-0.7,1.6
			c-0.2,0.6-0.4,1.3-0.5,2.1c-0.1,0.3-0.2,0.6-0.3,1.1c-0.1,0.5-0.3,0.9-0.4,1.4c-0.2,0.5-0.4,0.9-0.6,1.3c-0.3,0.4-0.6,0.6-1,0.7
			c-0.8,0.2-1.5,0.1-2.2-0.3c-0.7-0.3-1.1-0.9-1.3-1.8c-0.1-0.5-0.1-0.9,0.2-1.4c0.2-0.4,0.4-1.1,0.5-2.1c-0.1-0.5-0.1-1,0.2-1.7
			c0.2-0.7,0.4-1.3,0.6-1.8c-0.2-1-0.2-1.8,0-2.3C142.9,33.7,143,33,142.8,32.3z"/>
		<path class="st1" d="M10.1,67.1c-2.3,0-4.6,1.2-7.3,0.6c-1.2-1-3-1.2-2.7-3.3c0.4-1.8,2.2-3.9,4.1-3.6l3,0.6c4.9,1.2-4.6-10.2-7.1-13.8
			c-0.4-2.5,2.6-4.2,4.2-5.8c2-0.6,2.3-4.7,4.6-4.1c1.2,0.7,2.3,4.2,3.7,6.5c2.5,4.3,3.6,9.4,5.7,13.9c2.6-1.4,11.5-4.8,13.5-6.5
			c-1.5-13.9-2.8-28-3.6-42.9C27.4,7,27.6,5.5,28,3.7c2.3-1.8,5.7-2.3,8.5-3.4c5.8,0.7,1.7,6.9,3,10.7c0.6,26.2,0.4,52.5,12.2,75
			l3,6.3c-1.6,0.4-0.9,8.1-3.1,7.1c-1.6,0.7-4.4-4.4-5.5-5.7c-9.1-10-11.3-24.5-13.7-37.4c-2.1,0.1-9.9,5-12.1,5.7l-0.6,0.6
			c1.8,6.2,4.2,12.2,5.4,19c0.4,2.2-0.2,10.7-6,2.5C13.3,82,13.2,72.6,10.1,67.1z"/>
		<path class="st1" d="M80.3,72.2c-0.1,5.4-3.3,10.7-8.1,13.2c-3.3,2.8-7.1,4.8-11.2,3.9c-0.6-0.5-1.6-0.2-2-1c-0.7,0.2-1.5-0.7-2.2-0.9
			c-5.8-5-9.2-12.9-6.9-20.3c1.8-4.6,6.6-8.6,11.8-9c0.7-0.1,1.1,0.4,1.2,1.1c-0.6,3.3-5,3.9-4.8,7.6c-0.7,1.5-0.4,3.2-0.4,4.8
			c0.1,3.8,2.3,6.9,5,9.5c1.6,1.5,4.1,2.1,6.4,1.2c3-3,3.3-7.4,3.7-11.7c-0.4-6.4-2.1-13.9-8.7-16.9c-6.6-0.5-12.4,4.3-18,7.4
			c2.6-4.6,7.6-6.9,11.9-9.5c5.8-3,15.3-4.6,18.8,3C80.3,59.8,81.1,66.2,80.3,72.2z"/>
		<path class="st1" d="M87.6,79.9c1,0.6,1-0.7,1.8-0.7c3.9-2.6,10.1-2,12.9-5.8v-1.1c-2-1.7-4.8-3.1-6.5-5.5c-0.9-1,0.6-1.5,0.9-2.3
			c3.9-1.1,7.3,2.3,10.6,3.8c1,0.5,6.8,4.1,7,5.4c-0.5,4.7-6.5,5.4-10.8,5.9c-11.8,1.4-12.8,4.3-17.4,7.1c-1.2,1.7-2.6,3.2-4.3,4.4
			c-0.2,1.4-1.2,1.4-2.5,1.7c-0.7-0.5-2.1-0.6-2.3-1.8c-0.2-1.6,1.7-2.6,2.3-4.1c4.7-10.1,6.8-22.8,4.3-33.7c-0.9-3-2.7-8-5.3-10.2
			c-0.5-2.3,2.6-3.3,3.7-4.6c1.6-0.7,5.9,0.6,6.2,3.2C93.4,53.4,91.6,68.2,87.6,79.9z"/>
		<path class="st1" d="M136.2,77.6c-3.4,3.9-8.1,7.6-10.6,11.8c-2.7,1-5.9,6.4-9.2,2.8c-1.1-2.6-3.4-4.6-3.9-7.5c0.2-0.7,0.5-2,0.1-3
			c0.7-1.6,2.5-2.1,4.2-2.2l0.4-0.5c-2.6-6.6-3.8-13.8-6.5-20.3c-2.1-2.2-5.4-2.8-7.8-5.2c-4.4-3.8-5.3-10.2-3.3-15.5
			c1.7-2.3,4.7-4.1,7.6-4.8c0.9-0.1,1.5,0.2,2,1c-1,2-2.5,3.9-2.5,6.4c-0.2,3.7,1.5,7.4,4.6,9.2c0.9,0.1,1.6-0.1,2-0.9
			c1.4-0.1,2.3-0.4,3.4,0.4c1.8,0.9,0.7,3.8,3.3,4.1c8.1,1.8,18.5,0.6,23.1,8.9C144.2,68.2,139.6,73.1,136.2,77.6z M135.7,65.2
			c-3.3-5.4-10.5-4.4-15.8-5.7c1.5,7.6,4.4,15.3,6,22.7C130.3,77.6,136.2,72.1,135.7,65.2z"/>
		<path class="st1" d="M163.5,36.1c3.9,2.5,8.1,8.6,13.8,6.8c2.3,0.5,1.7,4.3,4.8,4.1c3.1,0.7,8.6,2.5,11.9,3c1.2,1.4,0.7,3.6,1.1,5.5
			c-2.1,1.1-7.3-0.1-9.5-0.4c-3.4-0.4-5.5-0.9-8.4-1.5c-1.5,1.1-1,3.4-1.5,5.2c1.4,3,5.3,2,7.5,4.2c-0.1,1.5-1.7,2.7-2.7,3.2
			c-2.3,1.1-6-1-6.9,1.8c-0.6,4.1-1.2,9-0.7,13.4l0.9,0.6c3.3-3.2,5.8-8.1,8.9-11.9c1.5-0.5,2.8-2.7,4.3-1.5c1,2.2-1.4,4.4-2.2,6.8
			c-3.6,6-7.5,12.7-15.1,13.9c-2.7,0.5-3.7-2.2-4.8-4.1c-0.4-1.4-0.4-2.6-0.7-4.2c-0.1-5.9,0.7-11,1.8-17.9c0.5-3.7,2-7.3,2.7-10.8
			c0-4.3-5.5-4.7-8.5-6.9c-2.7-1.7-4.8-3.3-7.9-4.6c-0.7-0.9-1.1-2-0.9-3c1.7-2.3,3.7-5.4,7.1-5.3L163.5,36.1z"/>
		<path class="st1" d="M240.4,65.1c4.7,9.3,12.5,17.8,17.4,26.8h-0.1c-0.6,0.7,0.4,1.3,0.4,1.8l-0.9,0.3l1.5,2.5c-0.6,0.6-1.3,0-1.9,0v0.9
			l-0.4-0.4c-0.1,0.9,0,1.3,0.4,2.2l-0.6-0.6c-0.7,0.4-1.6-0.6-2.2-0.3l-0.7-0.9c-0.7,0.6-1.6-0.6-2.2-0.9
			c-12.8-15.3-23-31.8-29.4-49.9c-1,2.8-1.2,8.5-2.1,10.9c-1.3,4.1,0.3,6.2-2.6,8.4c-4.6,1.5-6.3-8.4-9.4-10.3
			c-0.4,6.2-1.5,12.2-4.9,17.4v0.6c-0.4,0-1-1-1.2,0l-0.7-0.6c-0.6-10-1.3-20-5.7-28.5c-1.6-0.9-2.5-3.2-2.4-5
			c1.9-2.6,4.6-5.1,8.1-6.2l2.9,0.9c2.6,4.3,7.4,14.3,10.6,18c1.5-1.6,1.2-10.3,2.1-12.4c0.4-2.4,1.5-5.6,0-8.4l-4.6-14.9
			c1.6-2.4,5.2-4.6,8.1-5.3c5.3,0,4.7,5.7,4.9,8.8C228.1,35.6,233.1,51.1,240.4,65.1z"/>
	</svg>

	<svg id="icon-slide-arrow" viewBox="0 0 18 15">
		<style type="text/css">
			.st0{fill:#333;}
		</style>
		<polygon class="st0" points="0,4 0,11 9,11 9,15 18,7.5 9,0 9,4 "/>
	</svg>

</svg>