<svg xmlns="http://www.w3.org/2000/svg" width="0" height="0">

	@import "card-back.svg"
	@import "card-diamonds.svg"
	@import "card-spades.svg"
	@import "card-hearts.svg"
	@import "card-clubs.svg"

	<svg id="user-placeholder" viewBox="0 0 74 59">
		<style type="text/css">
			.st0{fill:url(#SVGID_1_);}
			.st1{fill:#fff;}
		</style>
		<radialGradient id="SVGID_1_" cx="37" cy="29.5" r="33.4608" gradientUnits="userSpaceOnUse">
			<stop  offset="0" style="stop-color:#CFD4EF"/>
			<stop  offset="1" style="stop-color:#7F849F"/>
		</radialGradient>
		<rect y="0" class="st0" width="74" height="59"/>
		<path class="st1" d="M65.5,59h-58l1.1-1.5c1.1-1.2,2.6-2.2,4.5-2.8c5.5-2.5,7.8-2.9,10.8-3.4s3.8-1.6,4.2-4.4
			c0.4-2.8,0.7-3.1,0.7-4.5c-1.8-1.2-2.4-3.5-2.5-4.8c-0.1-1.2-0.6-2.6-0.5-3.8c-1.7,0.4-1.5-1.7-2-2.9c-0.2-0.4-1.1-3.1-1.3-4.7
			c-0.2-1.5,0.3-2.2,1.3-1.5c-0.9-2.9-0.7-5.6-0.9-7.5c-0.2-1.9-1.1-6.7,2.4-7.6c1.2-0.4,2-2.2,4.2-2.9C31.7,6,34,4.6,36.5,4.6
			c2.6,0,4.8,1.4,6.9,2.1c2.1,0.7,2.9,2.5,4.2,2.9c3.5,0.9,2.6,5.7,2.4,7.6c-0.2,1.9,0.1,4.6-0.9,7.5c1.1-0.7,1.5,0,1.3,1.5
			s-1.1,4.2-1.3,4.7c-0.5,1.2-0.3,3.3-2,2.9c0.1,1.2-0.4,2.5-0.5,3.8c-0.1,1.2-0.7,3.5-2.5,4.8c0,1.3,0.3,1.7,0.7,4.5s1.1,3.9,4.2,4.4
			c3,0.5,6.4,1.2,10.8,3.4c1.9,0.7,3.4,1.7,4.5,2.8L65.5,59z"/>
	</svg>

</svg>