<svg xmlns="http://www.w3.org/2000/svg" width="0" height="0">

	@import "smoke-puffs.svg"
	@import "chip-red.svg"
	@import "card-back.svg"
	@import "card-diamonds.svg"
	@import "card-spades.svg"
	@import "card-hearts.svg"
	@import "card-clubs.svg"

	<svg id="user-placeholder" viewBox="0 0 74 59">
		<style type="text/css">
			.st0{fill:url(#SVGID_1_);}
			.st1{fill:#fff;}
		</style>
		<radialGradient id="SVGID_1_" cx="37" cy="29.5" r="33.4608" gradientUnits="userSpaceOnUse">
			<stop  offset="0" style="stop-color:#CFD4EF"/>
			<stop  offset="1" style="stop-color:#7F849F"/>
		</radialGradient>
		<rect y="0" class="st0" width="74" height="59"/>
		<path class="st1" d="M65.5,59h-58l1.1-1.5c1.1-1.2,2.6-2.2,4.5-2.8c5.5-2.5,7.8-2.9,10.8-3.4s3.8-1.6,4.2-4.4
			c0.4-2.8,0.7-3.1,0.7-4.5c-1.8-1.2-2.4-3.5-2.5-4.8c-0.1-1.2-0.6-2.6-0.5-3.8c-1.7,0.4-1.5-1.7-2-2.9c-0.2-0.4-1.1-3.1-1.3-4.7
			c-0.2-1.5,0.3-2.2,1.3-1.5c-0.9-2.9-0.7-5.6-0.9-7.5c-0.2-1.9-1.1-6.7,2.4-7.6c1.2-0.4,2-2.2,4.2-2.9C31.7,6,34,4.6,36.5,4.6
			c2.6,0,4.8,1.4,6.9,2.1c2.1,0.7,2.9,2.5,4.2,2.9c3.5,0.9,2.6,5.7,2.4,7.6c-0.2,1.9,0.1,4.6-0.9,7.5c1.1-0.7,1.5,0,1.3,1.5
			s-1.1,4.2-1.3,4.7c-0.5,1.2-0.3,3.3-2,2.9c0.1,1.2-0.4,2.5-0.5,3.8c-0.1,1.2-0.7,3.5-2.5,4.8c0,1.3,0.3,1.7,0.7,4.5s1.1,3.9,4.2,4.4
			c3,0.5,6.4,1.2,10.8,3.4c1.9,0.7,3.4,1.7,4.5,2.8L65.5,59z"/>
	</svg>

	<svg id="holdem-logo-poker" viewBox="-2 0 291 103" cache="keep">
		<style type="text/css">
			.holdem-st0{fill:none;stroke:#fff;stroke-width:1.75;}
		</style>
		<path class="holdem-st0" d="M0,51.2c0-5.8,1.6-10.9,4.6-15.5c3-4.7,7.1-8.4,12.2-11c5.1-2.7,10.5-4.1,16.3-4.1c4.4,0,8.6,0.8,12.5,2.3
			c3.9,1.4,7.5,3.6,10.7,6.5c3.2,2.9,5.6,6.2,7.3,9.9c1.7,3.7,2.6,7.8,2.6,12.3c0,4.4-0.9,8.4-2.6,12.2c-1.7,3.8-4.2,7-7.3,9.9
			c-3.1,2.9-6.7,5-10.7,6.5c-4,1.5-8.2,2.2-12.5,2.2c-4.2,0-8.4-0.7-12.5-2.2l-1.3-0.6L18,79v23.8l-18-0.1V51.2z M18,51.5
			c0,2.7,0.7,5.1,2.1,7.2c1.4,2.2,3.3,4,5.6,5.3c2.3,1.3,4.8,2,7.4,2c2.6,0,5.1-0.7,7.4-2c2.3-1.3,4.2-3.1,5.6-5.3
			c1.4-2.2,2.1-4.6,2.1-7.2c0-4-1.5-7.4-4.5-10.4c-3-2.9-6.5-4.3-10.6-4.3c-4.1,0-7.6,1.4-10.5,4.3C19.5,44.1,18,47.5,18,51.5z"/>
		<!-- <path class="holdem-st0" d="M85.7,78.4c-5.1-2.7-9.2-6.4-12.2-11.1c-3-4.7-4.6-10-4.6-15.9c0-4.4,0.9-8.5,2.6-12.3c1.8-3.8,4.2-7.1,7.3-9.9
			c3.1-2.8,6.7-5,10.7-6.5c4.1-1.5,8.2-2.3,12.5-2.3c4.3,0,8.5,0.8,12.5,2.3c3.9,1.4,7.5,3.6,10.7,6.4c3.1,2.9,5.5,6.2,7.3,9.9
			c1.8,3.8,2.6,7.9,2.6,12.3c0,4.5-0.9,8.6-2.6,12.3c-1.7,3.8-4.2,7.1-7.3,10c-3.2,2.9-6.7,5-10.7,6.5c-3.9,1.5-8.1,2.3-12.5,2.3
			C96.2,82.4,90.8,81.1,85.7,78.4z M91.4,61.8c3,2.9,6.5,4.3,10.5,4.3c4.1,0,7.6-1.4,10.6-4.3c3-2.9,4.5-6.4,4.5-10.4
			c0-2.6-0.7-5.1-2.1-7.3c-1.4-2.2-3.3-4-5.6-5.3c-2.3-1.3-4.8-2-7.4-2c-2.6,0-5.1,0.7-7.4,2c-2.3,1.3-4.2,3.1-5.6,5.3
			c-1.4,2.2-2.1,4.6-2.1,7.3C86.9,55.4,88.4,58.9,91.4,61.8z"/> -->
		<path class="holdem-st0" d="M137.9,80.6V0.6l18-0.1v44.2h0.2l18.7-21.9H196l-20.9,24.7l24.5,32.9h-22.5l-21.2-28.3v28.3H137.9z"/>
		<path class="holdem-st0" d="M253,39.1c1.7,3.8,2.5,7.9,2.5,12.2v0.5c0,0.2,0,0.4-0.1,0.6l-0.1,1h-7v0.1h-38.8c0.5,3.2,1.8,5.9,4.1,8.2
			c2.9,2.9,6.3,4.3,10.1,4.3c3.9,0,7.3-1.4,10.1-4.3l0.1-0.1l0.2-0.2l0.2-0.2l0.1-0.2l9.7,13.9c-2.8,2.3-5.6,4-8.5,5.1
			c-3.8,1.5-7.8,2.3-12,2.3c-5.6,0-10.8-1.3-15.6-4c-4.9-2.7-8.8-6.4-11.7-11.1c-2.9-4.7-4.4-10-4.4-15.8c0-4.4,0.8-8.5,2.5-12.2
			c1.7-3.8,4-7,7-9.8c3-2.9,6.4-5,10.1-6.5c3.9-1.5,7.9-2.3,12-2.3c4.1,0,8.1,0.8,12,2.3c3.8,1.5,7.2,3.6,10.2,6.4
			C249,32,251.3,35.3,253,39.1z M223.9,36.9c-2.5,0-4.9,0.6-7.1,1.9c-1.4,0.8-2.7,2-3.9,3.5h22.1c-1.3-1.5-2.6-2.7-3.9-3.5
			C228.8,37.5,226.4,36.9,223.9,36.9z"/>
		<path class="holdem-st0" d="M288,37.9c-0.9-0.6-2.2-1-3.7-1.1h-1c-4.6,0.2-6.9,3.4-6.9,9.6v34.2h-18V46.4c0-16.4,8.3-25,24.9-25.9h1
			c1.2,0,2.5,0.2,3.7,0.3V37.9z"/>
	</svg>

	<svg id="holdem-logo-holdem" viewBox="0 0 262 103" cache="keep">
		<style type="text/css">
			.holdem-st1{fill:#fff;}
		</style>
		<path class="holdem-st1" d="M142.8,32.3c-0.2-0.9-0.2-1.6-0.1-2.1c0.1-0.5,0.2-0.9,0.1-1.3c0.6-1,1.1-2.1,1.5-3.2c0.4-1.1,1-2,1.5-3
			c0.6-1.3,1.1-2.6,1.7-3.9c0.5-1.3,1.1-2.5,1.7-3.5c0.4-0.1,0.8-0.2,1.2-0.4c0.4-0.2,0.8-0.6,1-1.1c0.5-0.1,0.9-0.3,1.2-0.6
			c0.4-0.3,0.8-0.5,1.3-0.7c0.7-0.2,1.2,0.1,1.4,0.7c0.3,0.6,0.4,1.2,0.5,1.6l0.3,1.5l0.4,1.7c0.2,0.8,0.2,1.5,0.2,2
			c-0.1,0.5-0.2,1.1-0.5,1.6c-0.3,0.5-0.6,1.1-1,1.6c-0.4,0.6-0.9,1.3-1.4,2.1c-0.6,1-1.1,2-1.5,2.9c-0.4,0.9-0.9,1.9-1.5,2.9
			c-0.3,0.5-0.5,1-0.5,1.4c0,0.4-0.2,0.9-0.4,1.4c-0.3,0.8-0.5,1.5-0.8,2c-0.3,0.5-0.6,1-0.9,1.5c-0.3,0.5-0.5,1-0.7,1.6
			c-0.2,0.6-0.4,1.3-0.5,2.1c-0.1,0.3-0.2,0.6-0.3,1.1c-0.1,0.5-0.3,0.9-0.4,1.4c-0.2,0.5-0.4,0.9-0.6,1.3c-0.3,0.4-0.6,0.6-1,0.7
			c-0.8,0.2-1.5,0.1-2.2-0.3c-0.7-0.3-1.1-0.9-1.3-1.8c-0.1-0.5-0.1-0.9,0.2-1.4c0.2-0.4,0.4-1.1,0.5-2.1c-0.1-0.5-0.1-1,0.2-1.7
			c0.2-0.7,0.4-1.3,0.6-1.8c-0.2-1-0.2-1.8,0-2.3C142.9,33.7,143,33,142.8,32.3z"/>
		<path class="holdem-st1" d="M10.1,67.1c-2.3,0-4.6,1.2-7.3,0.6c-1.2-1-3-1.2-2.7-3.3c0.4-1.8,2.2-3.9,4.1-3.6l3,0.6c4.9,1.2-4.6-10.2-7.1-13.8
			c-0.4-2.5,2.6-4.2,4.2-5.8c2-0.6,2.3-4.7,4.6-4.1c1.2,0.7,2.3,4.2,3.7,6.5c2.5,4.3,3.6,9.4,5.7,13.9c2.6-1.4,11.5-4.8,13.5-6.5
			c-1.5-13.9-2.8-28-3.6-42.9C27.4,7,27.6,5.5,28,3.7c2.3-1.8,5.7-2.3,8.5-3.4c5.8,0.7,1.7,6.9,3,10.7c0.6,26.2,0.4,52.5,12.2,75
			l3,6.3c-1.6,0.4-0.9,8.1-3.1,7.1c-1.6,0.7-4.4-4.4-5.5-5.7c-9.1-10-11.3-24.5-13.7-37.4c-2.1,0.1-9.9,5-12.1,5.7l-0.6,0.6
			c1.8,6.2,4.2,12.2,5.4,19c0.4,2.2-0.2,10.7-6,2.5C13.3,82,13.2,72.6,10.1,67.1z"/>
		<path class="holdem-st1" d="M80.3,72.2c-0.1,5.4-3.3,10.7-8.1,13.2c-3.3,2.8-7.1,4.8-11.2,3.9c-0.6-0.5-1.6-0.2-2-1c-0.7,0.2-1.5-0.7-2.2-0.9
			c-5.8-5-9.2-12.9-6.9-20.3c1.8-4.6,6.6-8.6,11.8-9c0.7-0.1,1.1,0.4,1.2,1.1c-0.6,3.3-5,3.9-4.8,7.6c-0.7,1.5-0.4,3.2-0.4,4.8
			c0.1,3.8,2.3,6.9,5,9.5c1.6,1.5,4.1,2.1,6.4,1.2c3-3,3.3-7.4,3.7-11.7c-0.4-6.4-2.1-13.9-8.7-16.9c-6.6-0.5-12.4,4.3-18,7.4
			c2.6-4.6,7.6-6.9,11.9-9.5c5.8-3,15.3-4.6,18.8,3C80.3,59.8,81.1,66.2,80.3,72.2z"/>
		<path class="holdem-st1" d="M87.6,79.9c1,0.6,1-0.7,1.8-0.7c3.9-2.6,10.1-2,12.9-5.8v-1.1c-2-1.7-4.8-3.1-6.5-5.5c-0.9-1,0.6-1.5,0.9-2.3
			c3.9-1.1,7.3,2.3,10.6,3.8c1,0.5,6.8,4.1,7,5.4c-0.5,4.7-6.5,5.4-10.8,5.9c-11.8,1.4-12.8,4.3-17.4,7.1c-1.2,1.7-2.6,3.2-4.3,4.4
			c-0.2,1.4-1.2,1.4-2.5,1.7c-0.7-0.5-2.1-0.6-2.3-1.8c-0.2-1.6,1.7-2.6,2.3-4.1c4.7-10.1,6.8-22.8,4.3-33.7c-0.9-3-2.7-8-5.3-10.2
			c-0.5-2.3,2.6-3.3,3.7-4.6c1.6-0.7,5.9,0.6,6.2,3.2C93.4,53.4,91.6,68.2,87.6,79.9z"/>
		<path class="holdem-st1" d="M136.2,77.6c-3.4,3.9-8.1,7.6-10.6,11.8c-2.7,1-5.9,6.4-9.2,2.8c-1.1-2.6-3.4-4.6-3.9-7.5c0.2-0.7,0.5-2,0.1-3
			c0.7-1.6,2.5-2.1,4.2-2.2l0.4-0.5c-2.6-6.6-3.8-13.8-6.5-20.3c-2.1-2.2-5.4-2.8-7.8-5.2c-4.4-3.8-5.3-10.2-3.3-15.5
			c1.7-2.3,4.7-4.1,7.6-4.8c0.9-0.1,1.5,0.2,2,1c-1,2-2.5,3.9-2.5,6.4c-0.2,3.7,1.5,7.4,4.6,9.2c0.9,0.1,1.6-0.1,2-0.9
			c1.4-0.1,2.3-0.4,3.4,0.4c1.8,0.9,0.7,3.8,3.3,4.1c8.1,1.8,18.5,0.6,23.1,8.9C144.2,68.2,139.6,73.1,136.2,77.6z M135.7,65.2
			c-3.3-5.4-10.5-4.4-15.8-5.7c1.5,7.6,4.4,15.3,6,22.7C130.3,77.6,136.2,72.1,135.7,65.2z"/>
		<path class="holdem-st1" d="M163.5,36.1c3.9,2.5,8.1,8.6,13.8,6.8c2.3,0.5,1.7,4.3,4.8,4.1c3.1,0.7,8.6,2.5,11.9,3c1.2,1.4,0.7,3.6,1.1,5.5
			c-2.1,1.1-7.3-0.1-9.5-0.4c-3.4-0.4-5.5-0.9-8.4-1.5c-1.5,1.1-1,3.4-1.5,5.2c1.4,3,5.3,2,7.5,4.2c-0.1,1.5-1.7,2.7-2.7,3.2
			c-2.3,1.1-6-1-6.9,1.8c-0.6,4.1-1.2,9-0.7,13.4l0.9,0.6c3.3-3.2,5.8-8.1,8.9-11.9c1.5-0.5,2.8-2.7,4.3-1.5c1,2.2-1.4,4.4-2.2,6.8
			c-3.6,6-7.5,12.7-15.1,13.9c-2.7,0.5-3.7-2.2-4.8-4.1c-0.4-1.4-0.4-2.6-0.7-4.2c-0.1-5.9,0.7-11,1.8-17.9c0.5-3.7,2-7.3,2.7-10.8
			c0-4.3-5.5-4.7-8.5-6.9c-2.7-1.7-4.8-3.3-7.9-4.6c-0.7-0.9-1.1-2-0.9-3c1.7-2.3,3.7-5.4,7.1-5.3L163.5,36.1z"/>
		<path class="holdem-st1" d="M240.4,65.1c4.7,9.3,12.5,17.8,17.4,26.8h-0.1c-0.6,0.7,0.4,1.3,0.4,1.8l-0.9,0.3l1.5,2.5c-0.6,0.6-1.3,0-1.9,0v0.9
			l-0.4-0.4c-0.1,0.9,0,1.3,0.4,2.2l-0.6-0.6c-0.7,0.4-1.6-0.6-2.2-0.3l-0.7-0.9c-0.7,0.6-1.6-0.6-2.2-0.9
			c-12.8-15.3-23-31.8-29.4-49.9c-1,2.8-1.2,8.5-2.1,10.9c-1.3,4.1,0.3,6.2-2.6,8.4c-4.6,1.5-6.3-8.4-9.4-10.3
			c-0.4,6.2-1.5,12.2-4.9,17.4v0.6c-0.4,0-1-1-1.2,0l-0.7-0.6c-0.6-10-1.3-20-5.7-28.5c-1.6-0.9-2.5-3.2-2.4-5
			c1.9-2.6,4.6-5.1,8.1-6.2l2.9,0.9c2.6,4.3,7.4,14.3,10.6,18c1.5-1.6,1.2-10.3,2.1-12.4c0.4-2.4,1.5-5.6,0-8.4l-4.6-14.9
			c1.6-2.4,5.2-4.6,8.1-5.3c5.3,0,4.7,5.7,4.9,8.8C228.1,35.6,233.1,51.1,240.4,65.1z"/>
	</svg>

	<svg id="logo-chip" viewBox="0 0 83 83">
		<style type="text/css">
			.st0{fill:#C1272D;}
			.st4{opacity:0.5;fill:url(#SVGID_1_);enable-background:new    ;}
			.st5{opacity:0.5;fill:url(#SVGID_2_);enable-background:new    ;}
			.st6{opacity:0.5;fill:url(#SVGID_3_);enable-background:new    ;}
			.st7{opacity:0.3;fill:url(#SVGID_4_);enable-background:new    ;}
		</style>
		<circle class="st0" cx="41.5" cy="41.5" r="41.5"/>
		<circle id="center" class="st0" cx="41.5" cy="41.5" r="22.3"/>
		<linearGradient id="SVGID_1_" gradientUnits="userSpaceOnUse" x1="41.5" y1="83.8898" x2="41.5" y2="0.8898" gradientTransform="matrix(1 0 0 -1 0 83.8898)">
			<stop  offset="0" style="stop-color:#FFFFFF"/>
			<stop  offset="1" style="stop-color:#3A0000"/>
		</linearGradient>
		<path class="st4" d="M41.5,0C18.6,0,0,18.6,0,41.5S18.6,83,41.5,83S83,64.4,83,41.5S64.4,0,41.5,0z M41.5,81.7
			c-22.3,0-40.2-18.1-40.2-40.2c0-22.3,18.1-40.2,40.2-40.2s40.2,18.1,40.2,40.2C81.7,63.8,63.8,81.7,41.5,81.7z"/>
		<linearGradient id="SVGID_2_" gradientUnits="userSpaceOnUse" x1="41.5" y1="12.9329" x2="41.5" y2="71.8466" gradientTransform="matrix(1 0 0 -1 0 83.8898)">
			<stop  offset="0" style="stop-color:#FFFFFF"/>
			<stop  offset="1" style="stop-color:#400000"/>
		</linearGradient>
		<path class="st5" d="M41.5,12C25.2,12,12,25.2,12,41.5S25.2,71,41.5,71S71,57.8,71,41.5S57.8,12,41.5,12z M41.5,69.8
			c-15.6,0-28.3-12.7-28.3-28.3s12.7-28.3,28.3-28.3s28.3,12.7,28.3,28.3S57.1,69.8,41.5,69.8z"/>
		<linearGradient id="SVGID_3_" gradientUnits="userSpaceOnUse" x1="-498.5" y1="809.3551" x2="-498.5" y2="853.8329" gradientTransform="matrix(-1 0 0 1 -457 -790.0941)">
			<stop  offset="0" style="stop-color:#FFFFFF"/>
			<stop  offset="1" style="stop-color:#240000"/>
		</linearGradient>
		<path class="st6" d="M41.5,63.8c12.2,0,22.3-9.9,22.3-22.3c0-12.2-9.9-22.3-22.3-22.3S19.2,29.3,19.2,41.5S29.3,63.8,41.5,63.8z
			 M41.5,20.2c11.7,0,21.3,9.6,21.3,21.3s-9.6,21.3-21.3,21.3s-21.3-9.6-21.3-21.3C20.2,29.8,29.8,20.2,41.5,20.2z"/>
		<radialGradient id="SVGID_4_" cx="41.3252" cy="827.4999" r="28.1609" gradientTransform="matrix(1 0 0 1 0 -786)" gradientUnits="userSpaceOnUse">
			<stop  offset="0.7924" style="stop-color:#FFFFFF;stop-opacity:0"/>
			<stop  offset="0.8375" style="stop-color:#6A0000;stop-opacity:0"/>
			<stop  offset="0.9328" style="stop-color:#FFFFFF"/>
			<stop  offset="0.9432" style="stop-color:#FCFCFC"/>
			<stop  offset="0.9519" style="stop-color:#F1F1F1"/>
			<stop  offset="0.96" style="stop-color:#E0E0E0"/>
			<stop  offset="0.9677" style="stop-color:#C7C7C7"/>
			<stop  offset="0.9752" style="stop-color:#A8A8A8"/>
			<stop  offset="0.9824" style="stop-color:#818181"/>
			<stop  offset="0.9896" style="stop-color:#535353"/>
			<stop  offset="0.9964" style="stop-color:#1F1F1F"/>
			<stop  offset="1" style="stop-color:#000000"/>
		</radialGradient>
		<path class="st7" d="M69.5,41.5c0,1.6-0.2,3.1-0.3,4.7c-0.2,1.5-0.5,2.8-1,4.2c-0.2,0.3-0.2,0.5-0.3,0.8c-1,2.9-2.8,5.9-4.7,8.3
			c-0.2,0.2-0.3,0.5-0.5,0.7c-0.8,1-2,2.1-2.9,2.9c-2.4,2.1-5.2,3.7-8.3,4.7c-1.5,0.5-2.6,0.8-4.1,1.3c-0.3,0-0.5,0.2-0.8,0.2
			c-1.8,0.2-3.3,0.3-4.9,0.3c-1.6,0-3.1-0.2-4.7-0.3c-0.3,0-0.5-0.2-0.8-0.2c-1.5-0.3-2.8-0.7-4.1-1.3c-2.9-1-5.9-2.8-8.3-4.7
			c-1-0.8-2.1-2-2.9-2.9c-0.2-0.2-0.3-0.5-0.5-0.7c-2.1-2.4-3.7-5.2-4.7-8.3c-0.2-0.3-0.2-0.5-0.3-0.8c-0.5-1.5-0.8-2.8-1-4.2
			c-0.2-1.6-0.3-3.1-0.3-4.7s0.2-3.1,0.3-4.7c0.2-1.5,0.5-2.8,1-4.2c0.2-0.3,0.2-0.5,0.3-0.8c1-2.9,2.8-5.9,4.7-8.3
			c0.2-0.2,0.3-0.5,0.5-0.7c0.8-1,2-2.1,2.9-2.9c2.4-2.1,5.2-3.7,8.3-4.7c1.5-0.5,2.6-0.8,4.1-1.3c0.3,0,0.5-0.2,0.8-0.2
			c1.6-0.2,3.1-0.3,4.7-0.3c1.6,0,3.1,0.2,4.7,0.3c0.3,0,0.5,0.2,0.8,0.2c1.5,0.3,2.8,0.7,4.1,1.3c2.9,1,5.9,2.8,8.3,4.7
			c1,0.8,2.1,2,2.9,2.9c0.2,0.2,0.3,0.5,0.5,0.7c2.1,2.4,3.7,5.2,4.7,8.3c0.2,0.3,0.2,0.5,0.3,0.8c0.5,1.5,0.8,2.8,1,4.2
			C69.3,38.4,69.5,39.9,69.5,41.5z"/>
	</svg>

	<svg id="logo-chip-overlay" viewBox="0 0 83 83">
		<style type="text/css">
			.st1{opacity:0.65;}
			.st2{fill:#FFFFFF;}
			.st3{fill:#F2F2F2;}
		</style>
		<g id="inner" class="st1">
			<path class="st2" d="M25.1,26.5l-5-2.9c-2,2.4-3.6,5.2-4.7,8.1l4.9,2.9C21.3,31.6,22.9,28.8,25.1,26.5z"/>
			<path class="st2" d="M41.5,19.2c1.6,0,3.1,0.2,4.7,0.5v-5.5c-1.6-0.2-3.1-0.3-4.7-0.3s-3.1,0.2-4.7,0.3v5.7
				C38.4,19.4,39.9,19.2,41.5,19.2z"/>
			<path class="st2" d="M62.7,34.7l4.9-2.9c-1-2.9-2.6-5.7-4.7-8.1l-5,2.9C60.1,28.8,61.7,31.6,62.7,34.7z"/>
			<path class="st2" d="M19.2,41.5c0-1.6,0.2-3.3,0.5-4.7h-5.5c-0.2,1.6-0.3,3.1-0.3,4.7s0.2,3.1,0.3,4.7h5.5
				C19.4,44.6,19.2,43.1,19.2,41.5z"/>
			<path class="st2" d="M56.3,25.1l2.9-5c-2.4-2-5.2-3.6-8.1-4.7l-2.9,5C51.3,21.3,54,22.9,56.3,25.1z"/>
			<path class="st2" d="M34.7,20.3l-2.9-5c-2.9,1-5.7,2.6-8.1,4.7l2.9,5C29,22.9,31.7,21.3,34.7,20.3z"/>
			<path class="st2" d="M48.3,62.7l2.8,4.9c2.9-1,5.7-2.6,8.1-4.7l-2.9-4.9C54.2,60.1,51.4,61.7,48.3,62.7z"/>
			<path class="st2" d="M57.9,56.3l4.9,2.9c2-2.4,3.6-5.2,4.7-8.1l-4.9-2.8C61.7,51.3,60.1,54,57.9,56.3z"/>
			<path class="st2" d="M68.8,36.8h-5.5c0.3,1.5,0.5,3.1,0.5,4.7s-0.2,3.1-0.5,4.6h5.5c0.2-1.3,0.3-3.1,0.3-4.7
				C69.2,39.9,69,38.2,68.8,36.8z"/>
			<path class="st2" d="M20.3,48.2l-4.9,2.8c1,2.9,2.6,5.7,4.7,8.1l4.9-2.9C22.9,54,21.3,51.3,20.3,48.2z"/>
			<path class="st2" d="M41.5,63.8c-1.6,0-3.1-0.2-4.7-0.5V69c1.6,0.2,3.1,0.3,4.7,0.3s3.1-0.2,4.7-0.5v-5.5
				C44.6,63.6,43.1,63.8,41.5,63.8z"/>
			<path class="st2" d="M26.5,57.9l-2.9,4.9c2.4,2,5.2,3.6,8.1,4.7l2.8-4.9C31.6,61.7,28.8,60.1,26.5,57.9z"/>
		</g>
		<g id="outer">
			<path class="st3" d="M35.3,11.7c2-0.3,3.9-0.7,6-0.7c2.1,0,4.1,0.2,6,0.7l0,0c1.1,0.2,2.3-0.7,2.3-1.8V0.8c-2.4-0.7-5.2-0.8-8-0.8
				c-2.9,0-5.7,0.3-8.3,0.8v9.1C33.2,11.1,34.3,11.9,35.3,11.7L35.3,11.7z"/>
			<path class="st3" d="M47.7,71.3c-2,0.3-3.9,0.7-6,0.7c-2.1,0-4.1-0.2-6-0.7l0,0c-1.1-0.2-2.3,0.7-2.3,1.8v9.1
				c2.6,0.7,5.4,0.8,8.1,0.8c2.9,0,5.7-0.3,8.3-0.8v-9.1C49.8,71.9,48.7,71.1,47.7,71.3L47.7,71.3z"/>
			<path class="st3" d="M70.3,51.1c-0.7,1.8-1.5,3.7-2.4,5.5c-1,1.8-2.3,3.6-3.6,4.9l0,0c-0.8,1-0.5,2.3,0.3,2.8l8,4.6
				c2-2,3.4-4.2,4.9-6.7c1.5-2.6,2.6-5,3.4-7.6l-8-4.6C71.9,49.5,70.6,50.1,70.3,51.1L70.3,51.1z"/>
			<path class="st3" d="M12.7,31.9c0.7-1.8,1.5-3.7,2.4-5.5c1-1.8,2.3-3.6,3.6-4.9l0,0c0.8-1,0.5-2.3-0.3-2.8L10.6,14
				c-2,2-3.4,4.2-4.9,6.7c-1.5,2.6-2.6,5-3.4,7.6l8,4.6C11.1,33.5,12.4,32.9,12.7,31.9L12.7,31.9z"/>
			<path class="st3" d="M64.3,21.3c1.3,1.5,2.6,3.1,3.6,4.9c1,1.8,2,3.7,2.4,5.5l0,0c0.5,1.1,1.8,1.6,2.6,1.1l8-4.6
				c-0.7-2.6-2-5-3.3-7.5c-1.5-2.6-3.1-4.7-4.9-6.8l-8,4.6C63.8,19,63.6,20.5,64.3,21.3L64.3,21.3z"/>
			<path class="st3" d="M18.7,61.5c-1.3-1.5-2.6-3.1-3.6-4.9c-1-1.8-2-3.7-2.4-5.5l0,0c-0.5-1.1-1.8-1.6-2.6-1.1l-8,4.6
				c0.7,2.6,2,5,3.3,7.5c1.5,2.6,3.1,4.7,4.9,6.8l8-4.6C19.2,64,19.4,62.3,18.7,61.5L18.7,61.5z"/>
		</g>
	</svg>

	<svg id="icon-slide-arrow" viewBox="0 0 18 15">
		<style type="text/css">
			.st0{fill:#333;}
		</style>
		<polygon class="st0" points="0,4 0,11 9,11 9,15 18,7.5 9,0 9,4 "/>
	</svg>

</svg>