
<svg id="smoke-puffs" viewBox="0 0 50 400">
	<style type="text/css">
		.st0{fill:#fff;}
		.st1{fill:#bbb;}
	</style>
	<g id="frame_3">
		<path class="st0" d="M34.113,21.008c0.386-0.437,0.605-0.935,0.605-1.465c0-1.67-2.172-3.029-4.898-3.105
			c-0.244-0.91-1.068-1.335-2.209-1.104c-0.274-1.769-1.799-3.125-3.644-3.125c-1.23,0-2.317,0.604-2.988,1.529
			c-0.528-0.377-1.197-0.604-1.925-0.604c-1.708,0-3.092,1.239-3.092,2.767c0,0.289,0.05,0.567,0.141,0.828
			c-2.067-0.039-3.433,1.601-3.396,3.383c0.032,1.537,1.207,2.839,2.872,3.279c-0.502,0.671-0.797,1.473-0.797,2.336
			c0,1.412,0.786,2.66,1.99,3.433c-0.56,0.761-0.891,1.688-0.891,2.69c0,2.488,2.027,4.516,4.584,4.665
			c0.635,0.78,1.568,1.276,2.612,1.276c1.251,0,2.343-0.711,2.952-1.773c0.405,0.12,0.835,0.186,1.282,0.186
			c2.273,0,4.123-1.68,4.224-3.787c0.017,0,0.033,0.003,0.05,0.003c3.146,0,5.696-2.696,5.696-6.022
			C37.282,24.034,35.989,21.993,34.113,21.008z"/>
		<path class="st1" d="M33.746,17.723c0.979,2.202-2.669,4.627-3.951,4.525c-0.407,0.692-2.197,1.465-3.296,0.936
			c0.732,2.197-0.793,3.906-1.568,3.601c0,0.972-1.809,1.363-2.135,0.427c-0.244,0.203-1.099,0.366-1.872,0.041
			c-0.57,0.976-2.177,1.017-2.767,0.61c-0.732-0.504-0.895-1.912,0.081-2.645c-0.57-0.163-0.814-0.692-0.529-2.36
			c-0.264,0.59-1.261,0.915-2.133,0.532c-0.502,0.671-0.797,1.473-0.797,2.336c0,1.412,0.786,2.66,1.99,3.433
			c-0.56,0.761-0.891,1.688-0.891,2.69c0,2.488,2.027,4.516,4.584,4.665c0.635,0.78,1.568,1.276,2.612,1.276
			c1.251,0,2.343-0.711,2.952-1.773c0.405,0.12,0.838,0.134,1.282,0.186c2.186,0.258,4.437-1.302,4.224-3.787
			c0.017,0,0.033,0.001,0.05,0.003c3.024,0.353,6.686-2.794,5.467-7.716c0.433,3.919-4.083,6.97-6.701,4.38
			c0.081,2.034-1.329,3.255-3.323,3.214c-1.79,3.377-4.679,1.912-5.004,0.732c-0.285,0.366-1.729,0.387-2.523,0.02
			c-1.766-0.815-2.034-2.706-1.18-3.886c0.854-1.18,2.767-0.488,3.296,0.203c0.57-0.827,1.546-0.8,2.278-0.231
			c0.353-1.356,1.356-1.166,1.655-1.139c0.353-1.166,1.004-1.953,1.899-1.926c0.081-1.41,0.841-2.712,2.929-2.577
			c0.19-1.919,3.002-2.786,3.734-2.488C34.678,20.886,35.349,18.892,33.746,17.723z"/>
		<path class="st1" d="M20.913,22.059c1.004-0.488,0.678-1.519,0.298-2.034c0.814,1.193,1.817,1.139,2.712,0
			c0.434,0.542,1.139,0.353,1.302,0c-0.293,0.57-0.163,1.058,0,1.302c-0.678-0.542-1.248-0.57-1.627-0.163
			c-0.217-0.122-0.597,0.081-0.529,0.461c-0.475-0.136-0.665,0.57-0.448,1.166C21.889,21.815,21.238,22.032,20.913,22.059z"/>
	</g>
	<g id="frame_4">
		<path class="st0" d="M36.04,71.036c0.671-0.605,1.064-1.329,1.064-2.11c0-2.056-2.718-3.729-6.124-3.816
			c-0.638-0.971-1.869-1.759-3.428-2.207c-0.039-1.907-2.073-3.443-4.58-3.443c-1.571,0-2.957,0.604-3.783,1.524
			c-2.842,0.051-5.153,1.862-5.389,4.164c-1.74,0.749-2.953,2.412-2.953,4.348c0,1.949,1.23,3.623,2.99,4.364
			c-0.036,0.143-0.06,0.288-0.06,0.437c0,0.901,0.692,1.698,1.755,2.197c-0.727,0.428-1.213,1.177-1.213,2.034
			c0,0.492,0.16,0.948,0.433,1.329c-0.895,0.92-1.464,2.266-1.464,3.77c0,2.771,1.919,5.018,4.286,5.018
			c0.701,0,1.36-0.201,1.944-0.55c0.777,1.504,2.129,2.503,3.671,2.503c1.315,0,2.491-0.728,3.292-1.875
			c0.666,0.63,1.486,1.007,2.377,1.007c2.217,0,4.014-2.307,4.014-5.154c0-0.325-0.026-0.643-0.071-0.951
			c0.272,0.049,0.548,0.083,0.831,0.083c3.056,0,5.533-2.987,5.533-6.673C39.165,74.394,37.888,72.117,36.04,71.036z M27.264,73.492
			c0.236,0.046,0.485,0.073,0.743,0.073c0.342,0,0.668,0.138,0.97,0.058c-0.715,0.566-1.081,1.502-0.833,2.604
			c-0.273-0.067-0.564-0.103-0.864-0.109c0.15-0.403,0.236-0.836,0.236-1.291C27.515,74.355,27.424,73.907,27.264,73.492z
			 M21.101,72.312c-0.27-0.162-0.572-0.304-0.901-0.418c0.336-0.549,0.561-1.165,0.644-1.824c1.079,0.425,2.368,0.674,3.756,0.674
			c0.155,0,0.306-0.008,0.458-0.014c0.121,0.135,0.257,0.263,0.403,0.388c-0.055,0.109-0.095,0.222-0.119,0.339
			c-0.466-0.212-0.983-0.333-1.528-0.333C22.74,71.124,21.777,71.583,21.101,72.312z M20.924,80.502
			c-0.398-0.583-0.904-1.057-1.483-1.386c0.047-0.175,0.078-0.355,0.082-0.542c0.658-0.143,1.18-0.755,1.321-1.543
			c0.675,0.907,1.752,1.497,2.969,1.497c0.092,0,0.182-0.007,0.272-0.014c0,0.005-0.001,0.009-0.001,0.014
			c0,0.612,0.296,1.168,0.781,1.594c-0.516-0.268-1.082-0.417-1.676-0.417C22.358,79.705,21.585,80,20.924,80.502z"/>
		<path class="st1" d="M32.086,82.661c0.551,3.125-3.499,5.225-5.837,3.47c-0.85,2.78-6.049,1.999-6.613-0.605
			c-3.929,2.413-7.296-4.692-1.178-6.988c-2.227,0.502-2.456-2.614-0.526-3.185c-1.54,0.574-2.16-1.287-1.794-2.238
			c-1.654,0.735-6.075-1.341-4.95-5.345c-1.132,3.061,0.561,5.62,2.651,6.09c-0.036,0.143-0.06,0.288-0.06,0.437
			c0,0.901,0.692,1.698,1.755,2.197c-0.727,0.428-1.213,1.177-1.213,2.034c0,0.492,0.16,0.948,0.433,1.329
			c-0.895,0.92-1.464,2.266-1.464,3.77c0,2.771,1.919,5.018,4.286,5.018c0.701,0,1.36-0.201,1.944-0.55
			c0.777,1.504,2.129,2.503,3.671,2.503c1.315,0,2.491-0.728,3.292-1.875c0.666,0.63,1.486,1.007,2.377,1.007
			c2.217,0,4.014-2.307,4.014-5.154c0-0.325-0.026-0.643-0.071-0.951c0.272,0.049,0.548,0.083,0.831,0.083
			c3.056,0,5.533-2.987,5.533-6.673c0-2.643-1.277-4.92-3.125-6.001C38.73,73.084,41.2,82.489,32.086,82.661z"/>
		<path class="st1" d="M35.897,66.695c-0.081,1.953-1.166,3.649-2.753,3.487c-0.183,1.505-2.156,1.953-2.767,1.505
			c-0.427,0.875-1.835,1.659-3.113,1.806c0.549,0.427,1.377,0.196,1.682,0.155c0.285-0.374,1.228-0.577,1.817-0.232
			c0.102-0.915,1.851-1.75,3.113-1.383c0.102-0.651,0.671-0.712,0.936-0.631c-0.142-0.956,1.004-0.772,1.228-0.366
			C38.026,69.205,37.009,67.415,35.897,66.695z"/>
		<path class="st1" d="M19.522,78.574c0.947-1.008,1.436-1.639,1.253-2.9c0.529,1.357,2.665,3.031,3.987,2.197
			c-0.57,0.549-0.588,1.655,0.103,2.252c-0.876-0.543-1.14-1.153-1.201-1.499c-0.834,0.143-2.136,0-2.523-0.57
			C20.653,78.38,19.979,78.586,19.522,78.574z"/>
		<path class="st1" d="M25.461,70.215c-1.417,0.725-4.177-0.766-4.889-2.068c-0.027,1.6-1.302,3.519-3.001,4.165
			c1.241-0.361,1.577-0.218,1.465,0.616c0.02-0.284,0.669-1.223,1.164-1.034c0.364-0.4,0.574-1.035,0.647-1.699
			c0.731,0.409,3.177,0.797,4.302,0.576c-0.142,0.173-0.012,0.6,0.224,0.793c0.061-0.264,0.183-0.374,0.936-0.529
			C25.739,71.137,25.291,70.649,25.461,70.215z"/>
	</g>
	<g id="frame_5">
		<g>
			<path class="st0" d="M14.355,123.228c0.586,0.381,1.296,0.606,2.063,0.606c2,0,3.621-1.518,3.621-3.391
				c0-0.578-0.155-1.122-0.428-1.598c0.918-0.296,1.594-1.236,1.594-2.362c0-0.945-0.478-1.756-1.173-2.171
				c-0.066-2.092-1.778-3.769-3.886-3.769c-2.15,0-3.892,1.743-3.892,3.892c0,0.168,0.014,0.333,0.035,0.496
				c-2.045,0.601-3.507,2.172-3.507,4.02c0,2.367,2.392,4.286,5.343,4.286C14.204,123.237,14.279,123.23,14.355,123.228z"/>
			<path class="st0" d="M14.995,129.909c0.245,0,0.482-0.03,0.71-0.082c0.375,0.221,0.818,0.353,1.297,0.353
				c1.333,0,2.414-0.996,2.414-2.224c0-1.007-0.731-1.848-1.727-2.122c-0.493-0.928-1.513-1.567-2.694-1.567
				c-1.663,0-3.011,1.263-3.011,2.821C11.984,128.647,13.332,129.909,14.995,129.909z"/>
			<path class="st0" d="M24,123.237c-0.336,0-0.651,0.087-0.935,0.232c-0.259-0.143-0.552-0.232-0.869-0.232
				c-0.808,0-1.484,0.535-1.713,1.267c-0.61,0.253-1.013,0.684-1.013,1.174c0,0.779,1.014,1.41,2.265,1.41
				c0.187,0,0.367-0.018,0.541-0.045c0.402,0.552,1.021,0.913,1.724,0.913c1.213,0,2.197-1.057,2.197-2.36
				C26.197,124.293,25.213,123.237,24,123.237z"/>
			<path class="st0" d="M31.604,133.065c-0.176-1.617-1.806-2.884-3.793-2.884c-1.682,0-3.107,0.909-3.612,2.168
				c-0.287-0.133-0.61-0.215-0.958-0.215c-0.574,0-1.09,0.206-1.459,0.534c-0.109-0.849-0.89-1.511-1.85-1.511
				c-0.393,0-0.758,0.112-1.059,0.301c-0.668-0.43-1.445-0.681-2.277-0.681c-2.472,0-4.475,2.174-4.475,4.855
				s2.004,4.855,4.475,4.855c0.98,0,1.883-0.345,2.62-0.924c0.587,1.773,2.117,3.04,3.917,3.04c1.469,0,2.759-0.844,3.503-2.118
				c0.838,0.479,1.854,0.761,2.952,0.761c2.861,0,5.181-1.907,5.181-4.258C34.768,135.225,33.463,133.712,31.604,133.065z"/>
			<path class="st0" d="M20.392,113.364c0,0.686,0.687,1.264,1.638,1.479c0.061,0.625,0.351,1.178,0.793,1.575
				c-0.923,0.193-1.617,1.01-1.617,1.991c0,1.124,0.911,2.034,2.034,2.034c1.124,0,2.034-0.911,2.034-2.034
				c0-0.536-0.212-1.02-0.55-1.383c1.223-0.136,2.178-1.161,2.178-2.421c0-0.269-0.054-0.523-0.134-0.765
				c1.095-0.632,1.816-1.705,1.816-2.924c0-1.944-1.834-3.519-4.096-3.519c-2.262,0-4.096,1.576-4.096,3.519
				c0,0.561,0.157,1.089,0.428,1.56C20.551,112.728,20.392,113.034,20.392,113.364z"/>
			<path class="st0" d="M39.254,125.265c0.004-0.062,0.017-0.121,0.017-0.184c0-1.438-1.078-2.604-2.407-2.604
				c-0.666,0-1.269,0.293-1.705,0.766c-0.306-0.312-0.661-0.495-1.042-0.495c-1.092,0-1.984,1.477-2.055,3.343
				c-0.85,0.577-1.417,1.602-1.417,2.774c0,1.474,0.895,2.719,2.124,3.127c0.813,1.388,2.24,2.312,3.87,2.312
				c2.532,0,4.584-2.222,4.584-4.964C41.224,127.651,40.443,126.162,39.254,125.265z"/>
			<path class="st0" d="M27.309,117.229c0,0.159,0.011,0.314,0.027,0.467c-0.93,0.292-1.567,0.88-1.567,1.561
				c0,0.288,0.116,0.559,0.318,0.799c-0.111,0.277-0.174,0.582-0.174,0.903c0,1.258,0.947,2.278,2.116,2.278
				c0.619,0,1.171-0.291,1.558-0.748c0.306,0.16,0.649,0.26,1.019,0.26c0.843,0,1.566-0.477,1.939-1.171
				c0.404,0.141,0.836,0.221,1.288,0.221c2.165,0,3.919-1.755,3.919-3.919c0-2.165-1.755-3.919-3.919-3.919
				c-1.017,0-1.941,0.391-2.637,1.026c-0.411-0.599-0.985-0.972-1.621-0.972C28.323,114.015,27.309,115.454,27.309,117.229z"/>
		</g>
		<g>
			<path class="st1" d="M21.206,116.483c0.024,1.309-0.676,2.066-1.594,2.362c0.272,0.476,0.428,1.02,0.428,1.598
				c0,1.873-1.621,3.391-3.621,3.391c-0.767,0-1.477-0.225-2.063-0.606c-0.076,0.003-0.152,0.009-0.229,0.009
				c-2.951,0-5.343-1.919-5.343-4.286c0.547,2.33,3.526,3.797,6.211,2.55c2.089,0.705,4.421-0.542,3.879-2.875
				C19.606,118.565,20.684,117.88,21.206,116.483z"/>
			<path class="st1" d="M19.416,127.957c0.054,1.173-1.081,2.224-2.414,2.224c-0.479,0-0.922-0.132-1.297-0.353
				c-0.228,0.052-0.465,0.082-0.71,0.082c-1.663,0-3.001-1.263-3.011-2.821c0.463,2.297,3.011,2.523,3.533,1.777
				c1.129,0.98,1.648-0.292,1.505-1.309C17.124,128.886,18.873,129.34,19.416,127.957z"/>
			<path class="st1" d="M26.197,125.597c0,1.573-0.984,2.36-2.197,2.36c-0.703,0-1.322-0.361-1.724-0.913
				c-0.174,0.027-0.354,0.045-0.541,0.045c-1.251,0-2.344-0.635-2.265-1.41c0.434,0.855,2.394,1.044,2.984,0.149
				c0.692,0.081,0.841,0,0.99-0.142c-0.705,0.59-0.319,1.607,0.536,1.648S25.668,126.688,26.197,125.597z"/>
			<path class="st1" d="M34.768,136.989c0.144,2.348-2.319,4.258-5.181,4.258c-1.098,0-2.114-0.283-2.952-0.761
				c-0.745,1.273-2.034,2.118-3.503,2.118c-1.8,0-3.33-1.267-3.917-3.04c-0.737,0.579-1.64,0.924-2.62,0.924
				c-2.472,0-4.513-2.174-4.475-4.855c0.705,3.065,5.235,4.964,7.079,2.794c0.922,2.061,4.937,5.045,7.432,0
				C28.306,141.115,33.208,140.072,34.768,136.989z"/>
			<path class="st1" d="M39.271,125.081"/>
			<path class="st1" d="M41.224,128.757c0.139,3.692-2.052,5.547-4.584,5.547c-1.63,0-3.058-0.924-3.87-2.312
				c-1.229-0.408-2.242-1.657-2.124-3.127c0.814,1.939,3.065,1.858,3.553,0.936c-0.461-0.298-0.871-0.943-0.651-2.061
				c0.624,1.027,2.089,1.434,3.418,0c-0.739,0.905-1.729,3.02,0.407,4.014C39.542,132.764,40.952,129.95,41.224,128.757z"/>
			<path class="st1" d="M37.752,117.88c-0.122,2.821-1.755,3.919-3.919,3.919c-0.452,0-0.884-0.08-1.288-0.221
				c-0.373,0.694-1.097,1.171-1.939,1.171c-0.37,0-0.713-0.099-1.019-0.26c-0.387,0.457-0.939,0.748-1.558,0.748
				c-1.168,0-2.116-1.02-2.116-2.278c0-0.321,0.063-0.626,0.174-0.903c-0.174,1.846,2.145,3.29,3.257,1.446
				c0.705,0.841,3.119,0.583,3.038-0.495c0.671,0.183,0.956-0.563,0.57-1.017C33.398,120.721,37.223,120.246,37.752,117.88z"/>
		</g>
		<path class="st1" d="M29.716,118.748c1.099-0.244,1.75-0.854,1.77-1.688c0,1.221,0.448,1.709,0.976,1.688
			c-1.038-0.163-1.465,0.325-1.526,0.692C30.645,118.85,30.103,118.748,29.716,118.748z"/>
		<path class="st1" d="M16.039,117.812c0.108-0.8,1.085-1.546,1.872-1.424c-0.542-0.231-0.732-0.502-0.719-0.705
			c-0.217,0.624-1.288,0.759-2.007,0.108C15.862,116.747,16.039,117.012,16.039,117.812z"/>
		<path class="st1" d="M19.466,136.996c0.221-1.363,0.435-1.699,1.849-2.197c-1.292,0.387-1.637,0.325-1.897-0.061
			c-0.117,0.387-0.361,0.488-0.809,0.448C19.239,135.633,19.469,136.08,19.466,136.996z"/>
		<path class="st1" d="M26.39,137.108c-0.254-0.854-0.59-1.312-1.048-1.394c0.275-0.356,0.478-1.183,0-1.41
			c1.048,0.312,1.587,0.444,2.441,0.149C26.705,134.992,26.339,135.836,26.39,137.108z"/>
	</g>
	<g id="frame_6">
		<path class="st0" d="M37.609,175.437c-0.963,0-1.853,0.305-2.585,0.82c-0.308-0.082-0.638-0.128-0.981-0.128
			c-1.685,0-3.051,1.066-3.051,2.38c0,1.083,0.929,1.996,2.199,2.284c0.399,2.078,2.225,3.649,4.419,3.649
			c2.487,0,4.503-2.016,4.503-4.503C42.112,177.452,40.096,175.437,37.609,175.437z"/>
		<path class="st0" d="M34.536,173.876c-0.171-0.393-0.626-0.677-1.164-0.677c-0.685,0-1.241,0.455-1.241,1.017
			c0,0.562,0.556,1.017,1.241,1.017c0.211,0,0.408-0.047,0.582-0.124c0.188,0.157,0.461,0.258,0.769,0.258
			c0.567,0,1.027-0.337,1.027-0.753c0-0.416-0.46-0.753-1.027-0.753C34.658,173.862,34.596,173.867,34.536,173.876z"/>
		<path class="st0" d="M38.925,167.727c0-2.191-1.776-3.967-3.967-3.967c-0.757,0-1.462,0.216-2.064,0.584
			c-0.389-0.164-0.836-0.259-1.313-0.259c-1.494,0-2.706,0.92-2.706,2.055c0,0.449,0.192,0.863,0.513,1.201
			c-0.009,0.088-0.025,0.173-0.025,0.264c0,0.743,0.32,1.402,0.815,1.853c0.01,1.686,1.171,3.05,2.602,3.05
			c0.689,0,1.314-0.318,1.779-0.834c0.131,0.013,0.264,0.02,0.399,0.02C37.149,171.693,38.925,169.917,38.925,167.727z"/>
		<path class="st0" d="M15.66,169.357c0.218,0.05,0.445,0.078,0.678,0.078c1.688,0,3.057-1.368,3.057-3.057
			c0-0.659-0.211-1.268-0.565-1.767c0.103-0.321,0.158-0.662,0.158-1.015c0-1.91-1.612-3.458-3.601-3.458s-3.601,1.548-3.601,3.458
			c0,0.181,0.019,0.358,0.047,0.532c-0.016,0-0.031-0.003-0.047-0.003c-2.157,0-3.906,2.086-3.906,4.659
			c0,2.573,1.749,4.659,3.906,4.659C13.781,173.443,15.423,171.659,15.66,169.357z"/>
		<path class="st0" d="M24.888,156.965c-2.382,0-4.313,1.366-4.313,3.051c0,0.247,0.046,0.486,0.125,0.717
			c-0.308,0.35-0.491,0.776-0.491,1.236c0,1.191,1.211,2.156,2.706,2.156c0.101,0,0.201-0.005,0.299-0.014
			c0.395,0.735,1.12,1.234,1.959,1.234c1.258,0,2.278-1.111,2.278-2.482c0-0.13-0.017-0.255-0.035-0.38
			c1.08-0.555,1.785-1.452,1.785-2.469C29.201,158.331,27.27,156.965,24.888,156.965z"/>
		<path class="st0" d="M14.432,179.505c0.862,0,1.621-0.419,2.104-1.058c0.173,0.036,0.352,0.061,0.541,0.061
			c1.056,0,1.912-0.597,1.912-1.333c0-0.549-0.476-1.019-1.156-1.223c-0.162-0.388-0.685-0.677-1.324-0.711
			c-0.484-0.62-1.23-1.025-2.077-1.025c-1.461,0-2.645,1.184-2.645,2.645S12.971,179.505,14.432,179.505z"/>
		<path class="st0" d="M30.432,183.899c-1.103,0-2.113,0.339-2.898,0.902c-0.411-0.303-0.9-0.481-1.426-0.481
			c-0.696,0-1.328,0.311-1.798,0.814c-0.435-0.114-0.896-0.177-1.375-0.177c-0.95,0-1.832,0.244-2.573,0.66
			c-0.454-1.665-2.069-2.898-3.998-2.898c-2.281,0-4.13,1.721-4.13,3.845c0,2.123,1.849,3.845,4.13,3.845
			c0.716,0,1.389-0.17,1.976-0.468c0.482,1.806,2.354,3.153,4.595,3.153c1.967,0,3.651-1.038,4.36-2.512
			c0.814,0.672,1.918,1.088,3.136,1.088c2.5,0,4.526-1.74,4.526-3.886C34.958,185.639,32.931,183.899,30.432,183.899z"/>
		<path class="st0" d="M17.3,180.889c-0.506,0-0.915,0.264-0.915,0.59c0,0.326,0.41,0.59,0.915,0.59c0.506,0,0.915-0.264,0.915-0.59
			C18.216,181.153,17.806,180.889,17.3,180.889z"/>
		<path class="st0" d="M17.504,178.976c-0.438,0-0.793,0.261-0.793,0.583c0,0.322,0.355,0.583,0.793,0.583
			c0.438,0,0.793-0.261,0.793-0.583C18.297,179.237,17.942,178.976,17.504,178.976z"/>
		<path class="st0" d="M19.965,170.849c0-0.235-0.104-0.452-0.282-0.633c0.143-0.113,0.241-0.28,0.241-0.476
			c0-0.34-0.276-0.615-0.615-0.615c-0.34,0-0.615,0.276-0.615,0.615c0,0.004,0.002,0.007,0.002,0.011
			c-0.119-0.019-0.241-0.031-0.368-0.031c-0.904,0-1.638,0.505-1.638,1.129c0,0.033,0.01,0.064,0.014,0.096
			c-0.577,0.116-1.011,0.625-1.011,1.236c0,0.697,0.565,1.261,1.261,1.261c0.697,0,1.261-0.565,1.261-1.261
			c0-0.073-0.01-0.143-0.021-0.213c0.045,0.003,0.088,0.009,0.133,0.009C19.232,171.978,19.965,171.473,19.965,170.849z"/>
		<path class="st0" d="M24.054,165.753c-0.618,0-1.119,0.592-1.119,1.322c0,0.117,0.017,0.228,0.041,0.336
			c-0.528,0.246-0.895,0.778-0.895,1.398c0,0.854,0.692,1.546,1.546,1.546s1.546-0.692,1.546-1.546c0-0.326-0.102-0.627-0.274-0.876
			c0.168-0.231,0.274-0.529,0.274-0.858C25.173,166.345,24.672,165.753,24.054,165.753z"/>
		<path class="st0" d="M27.757,167.727c-0.798,0-1.444,0.797-1.444,1.78c0,0.492,0.162,0.937,0.424,1.26
			c-0.111,0.225-0.18,0.476-0.18,0.744c0,0.933,0.756,1.688,1.688,1.688s1.689-0.756,1.689-1.688c0-0.611-0.328-1.141-0.814-1.438
			c0.049-0.179,0.082-0.367,0.082-0.566C29.201,168.523,28.554,167.727,27.757,167.727z"/>
		<path class="st0" d="M20.044,183.574c0.174,0,0.337-0.029,0.483-0.077c0.102,0.21,0.449,0.369,0.878,0.396
			c0.22,0.361,0.757,0.617,1.387,0.617c0.826,0,1.495-0.437,1.495-0.976c0-0.539-0.669-0.976-1.495-0.976
			c-0.419,0-0.797,0.113-1.068,0.295c-0.063-0.006-0.127-0.01-0.193-0.01c-0.139,0-0.271,0.014-0.393,0.04
			c0.001-0.013,0.006-0.026,0.006-0.04c0-0.404-0.493-0.732-1.101-0.732c-0.608,0-1.101,0.328-1.101,0.732
			C18.943,183.246,19.436,183.574,20.044,183.574z"/>
		<path class="st0" d="M26.882,183.37c0.147,0,0.289-0.014,0.427-0.036c0.311,0.149,0.672,0.24,1.063,0.24
			c1.138,0,2.06-0.729,2.06-1.627c0-0.899-0.922-1.627-2.06-1.627c-0.296,0-0.577,0.052-0.831,0.141
			c-0.207-0.055-0.427-0.091-0.659-0.091c-1.101,0-1.994,0.672-1.994,1.501C24.888,182.699,25.781,183.37,26.882,183.37z"/>
		<path class="st0" d="M25.158,176.289c0.279-0.248,0.463-0.633,0.463-1.07c0-0.749-0.528-1.357-1.18-1.357
			c-0.551,0-1.01,0.437-1.14,1.024c-0.306,0.269-0.508,0.713-0.508,1.217c0,0.822,0.533,1.489,1.19,1.489
			C24.589,177.593,25.084,177.023,25.158,176.289z"/>
		<path class="st0" d="M22.793,174.114c0-0.371-0.496-0.671-1.109-0.671c-0.612,0-1.109,0.301-1.109,0.671
			c0,0.093,0.032,0.182,0.089,0.263c-0.365,0.17-0.62,0.538-0.62,0.967c0,0.59,0.478,1.069,1.069,1.069s1.069-0.478,1.069-1.069
			c0-0.218-0.066-0.421-0.179-0.59C22.459,174.671,22.793,174.417,22.793,174.114z"/>
		<path class="st1" d="M42.112,179.939c0.095,2.485-2.016,4.503-4.503,4.503c-2.195,0-4.02-1.571-4.419-3.649
			c-1.27-0.288-2.199-1.201-2.199-2.284c0.537,1.634,2.544,1.811,3.67,0.771c-1.099,0.997-0.201,3.801,2.672,3.906
			C40.205,183.29,41.522,182.237,42.112,179.939z"/>
		<path class="st1" d="M35.749,174.615c-0.071,0.535-0.46,0.753-1.027,0.753c-0.308,0-0.58-0.101-0.769-0.258
			c-0.174,0.076-0.37,0.124-0.582,0.124c-0.685,0-1.345-0.348-1.241-1.017c0.414,0.817,1.577,0.649,1.809,0.425
			C34.274,175.048,35.17,175.191,35.749,174.615z"/>
		<path class="st1" d="M38.925,167.727c0.071,2.19-1.776,3.967-3.967,3.967c-0.135,0-0.268-0.007-0.399-0.02
			c-0.466,0.516-1.09,0.834-1.779,0.834c-1.431,0-2.592-1.364-2.602-3.05c-0.495-0.451-0.89-1.113-0.815-1.853
			c0.139,1.327,1.005,1.679,1.513,1.54c0.114,0.362,1.099,0.573,1.465-0.179c0.285,0.814,0.814,1.77,2.584,1.648
			C36.695,170.491,37.712,170.049,38.925,167.727z"/>
		<path class="st1" d="M18.83,164.612c0.355,0.499,0.565,1.108,0.565,1.767c0,1.688-1.368,3.057-3.057,3.057
			c-0.233,0-0.46-0.029-0.678-0.078c-0.237,2.302-1.879,4.086-3.873,4.086c-2.157,0-4.047-1.813-3.906-4.659
			c0.74,4.229,6.64,5.856,7.148,0.038c0.712-0.244,1.078-1.383,0.122-2.441c0.895,0.57,2.075,0.224,2.339-0.163
			c-0.346,0.692-1.017,0.895-1.302,0.854c0.02,1.261,1.777,2.228,2.462,0.468c0.685-1.76-0.448-1.851-0.732-1.729
			C18.651,165.547,18.786,165.121,18.83,164.612z"/>
		<path class="st1" d="M27.416,162.485c0.018,0.125,0.035,0.25,0.035,0.38c0,1.371-1.02,2.482-2.278,2.482
			c-0.839,0-1.564-0.499-1.959-1.234c-0.098,0.009-0.198,0.014-0.299,0.014c-1.494,0-2.706-0.965-2.706-2.156
			c0-0.46,0.182-0.886,0.491-1.236c-0.137,1.01,0.595,2.637,2.202,2.17c-0.11,0.448,0.325,0.692,0.59,0.488
			C23.627,164.083,26.804,164.712,27.416,162.485z"/>
		<path class="st1" d="M11.787,176.861c-0.022,1.46,1.184,2.645,2.645,2.645c0.862,0,1.621-0.419,2.104-1.058
			c0.173,0.036,0.352,0.061,0.541,0.061c1.056,0,1.922-0.597,1.912-1.333c-0.692,1.028-1.809,0.417-1.721-0.867
			c-0.448,1.18-1.322,1.409-1.709,1.284C15.477,178.872,12.568,179.279,11.787,176.861z"/>
		<path class="st1" d="M34.958,187.785c-0.104,2.143-2.027,3.886-4.526,3.886c-1.219,0-2.323-0.415-3.136-1.088
			c-0.709,1.474-2.394,2.512-4.36,2.512c-2.241,0-4.113-1.348-4.595-3.153c-0.587,0.298-1.26,0.468-1.976,0.468
			c-2.281,0-4.167-1.722-4.13-3.845c0.903,2.886,4.524,3.151,6.335,2.317c2.055,2.055,5.859,2.685,7.364,1.139
			c-0.285-0.407-0.285-0.834,0.081-0.976c-1.462-0.163-1.627-1.627-1.505-1.851c0.648,1.221,2.136,2.075,3.865,0.346
			c-0.715,1.505,1.022,2.909,2.238,2.97C31.833,190.569,34.111,189.512,34.958,187.785z"/>
		<path class="st1" d="M24.899,167.933c0.172,0.249,0.274,0.551,0.274,0.876c0,0.854-0.692,1.546-1.546,1.546
			s-1.54-0.692-1.546-1.546C22.628,170.125,24.8,169.872,24.899,167.933z"/>
		<path class="st1" d="M29.201,169.507c0,0.199-0.033,0.387-0.082,0.566c0.486,0.296,0.814,0.827,0.814,1.438
			c0,0.933-0.756,1.688-1.689,1.688s-1.688-0.756-1.688-1.688c0-0.268,0.068-0.519,0.18-0.744c-0.262-0.322-0.472-0.77-0.424-1.26
			c0.144,1.12,0.7,0.984,0.984,0.984c-0.61,0.529-0.394,1.811,0.956,1.811c1.375,0,1.282-1.566,0.671-2.095
			C29.164,169.872,29.201,169.507,29.201,169.507z"/>
		<path class="st1" d="M24.288,183.533c0.059,0.608-0.669,0.976-1.495,0.976c-0.631,0-1.168-0.256-1.387-0.617
			c-0.43-0.027-0.777-0.186-0.878-0.396c-0.146,0.048-0.309,0.077-0.483,0.077c-0.608,0-1.08-0.328-1.101-0.732
			c0.318,0.732,1.539,0.445,1.783,0.242c0.285,0.592,0.956,0.57,1.241,0.387C22.081,184.202,23.596,184.202,24.288,183.533z"/>
		<path class="st1" d="M30.432,181.946c0.106,0.981-1.019,1.627-1.657,1.729c-0.393,0.063-1.325-0.119-1.466-0.342
			c-0.108,0.124-0.613,0.136-0.76,0.136c-1.101,0-1.775-0.75-1.661-1.6c0.374,1.295,2.266,1.051,2.469-0.231
			C27.451,182.941,28.965,183.897,30.432,181.946z"/>
		<path class="st1" d="M25.158,176.289c-0.074,0.734-0.569,1.304-1.175,1.304c-0.657,0-1.199-0.667-1.19-1.489
			C23.208,177.021,24.464,177.307,25.158,176.289z"/>
		<path class="st1" d="M22.181,175.344c0,0.67-0.478,1.069-1.069,1.069s-1.148-0.44-1.069-1.069
			C20.502,176.104,21.722,175.859,22.181,175.344z"/>
	</g>
	<g id="frame_7">
		<path class="st0" d="M23.097,210.155c-0.001,0.046-0.005,0.091-0.005,0.137c0,1.753,1.038,3.174,2.319,3.174
			c1.281,0,2.319-1.421,2.319-3.174c0-0.098-0.004-0.195-0.011-0.291c1.255-0.541,2.086-1.475,2.086-2.537
			c0-1.674-2.058-3.031-4.598-3.031s-4.598,1.357-4.598,3.031C20.61,208.636,21.621,209.651,23.097,210.155z"/>
		<path class="st0" d="M20.38,211.646c0.066,0.498,0.488,0.883,1.004,0.883c0.562,0,1.017-0.455,1.017-1.017
			c0-0.3-0.133-0.568-0.34-0.754c0.005-0.04,0.014-0.08,0.014-0.121c0-0.595-0.565-1.078-1.261-1.078
			c-0.697,0-1.261,0.483-1.261,1.078C19.552,211.102,19.898,211.495,20.38,211.646z"/>
		<path class="st0" d="M13.124,218.083c0-0.184-0.008-0.365-0.023-0.543c0.172,0.932,0.742,1.622,1.427,1.622
			c0.616,0,1.144-0.555,1.369-1.346c0.875-0.016,1.581-0.799,1.581-1.767c0-0.862-0.561-1.579-1.302-1.736
			c0.077-0.324,0.122-0.661,0.122-1.01c0-2.27-1.721-4.109-3.845-4.109c-2.033,0-3.693,1.687-3.831,3.822
			c-2,0.298-3.553,2.452-3.553,5.068c0,2.82,1.803,5.106,4.028,5.106C11.321,223.189,13.124,220.903,13.124,218.083z"/>
		<path class="st0" d="M17.013,236.379c-0.636-1.008-1.666-1.666-2.832-1.666c-0.844,0-1.617,0.343-2.222,0.915
			c-1.107,0.565-1.847,1.578-1.847,2.737c0,0.782,0.336,1.498,0.894,2.055c0.555,1.38,1.766,2.339,3.175,2.339
			c1.73,0,3.162-1.444,3.445-3.34c0.138-0.331,0.217-0.684,0.217-1.054C17.844,237.615,17.532,236.926,17.013,236.379z"/>
		<path class="st0" d="M16.013,226.831c0-0.595-0.665-1.078-1.485-1.078c-0.045,0-0.088,0.007-0.132,0.01
			c-0.42-0.717-1.133-1.19-1.943-1.19c-1.292,0-2.339,1.202-2.339,2.685c0,1.483,1.047,2.685,2.339,2.685
			c1.101,0,2.021-0.873,2.271-2.049C15.45,227.825,16.013,227.378,16.013,226.831z"/>
		<path class="st0" d="M16.765,227.095c-0.595,0-1.078,0.483-1.078,1.078c0,0.595,0.483,1.078,1.078,1.078s1.078-0.483,1.078-1.078
			C17.844,227.578,17.361,227.095,16.765,227.095z"/>
		<circle class="st0" cx="16.287" cy="230.396" r="0.646"/>
		<path class="st0" d="M15.641,232.364c0,0.371,0.356,0.671,0.796,0.671c0.44,0,0.796-0.301,0.796-0.671
			c0-0.371-0.356-0.671-0.796-0.671C15.998,231.693,15.641,231.993,15.641,232.364z"/>
		<path class="st0" d="M19.858,233.91c0-0.326-0.264-0.59-0.59-0.59c-0.326,0-0.59,0.264-0.59,0.59c0,0.326,0.264,0.59,0.59,0.59
			C19.593,234.5,19.858,234.236,19.858,233.91z"/>
		<path class="st0" d="M20.661,234.114c-0.286,0-0.519,0.232-0.519,0.519s0.232,0.519,0.519,0.519s0.519-0.232,0.519-0.519
			S20.948,234.114,20.661,234.114z"/>
		<path class="st0" d="M22.177,235.558c0.307,0,0.563-0.254,0.643-0.599c0.371-0.047,0.659-0.36,0.659-0.743
			c0-0.416-0.337-0.753-0.753-0.753c-0.315,0-0.584,0.194-0.696,0.469c-0.3,0.083-0.524,0.41-0.524,0.803
			C21.505,235.189,21.806,235.558,22.177,235.558z"/>
		<path class="st0" d="M26.255,233.91c0.319,0,0.607-0.089,0.828-0.231c0.23,0.561,0.751,0.954,1.359,0.954
			c0.82,0,1.485-0.713,1.485-1.592s-0.665-1.592-1.485-1.592c-0.587,0-1.09,0.369-1.331,0.899c-0.224-0.153-0.524-0.248-0.856-0.248
			c-0.691,0-1.251,0.405-1.251,0.905C25.004,233.505,25.565,233.91,26.255,233.91z"/>
		<path class="st0" d="M17.216,218.877c-0.714,0-1.293,0.613-1.337,1.385c-0.619,0.132-1.087,0.73-1.087,1.45
			c0,0.816,0.601,1.478,1.343,1.478c0.712,0,1.289-0.612,1.334-1.384c0.623-0.13,1.094-0.729,1.094-1.45
			C18.562,219.539,17.96,218.877,17.216,218.877z"/>
		<path class="st0" d="M21.973,224.763c0-0.315-0.345-0.57-0.77-0.57c-0.425,0-0.77,0.255-0.77,0.57c0,0.034,0.006,0.067,0.014,0.099
			c-0.181,0.13-0.305,0.375-0.305,0.66c0,0.419,0.266,0.759,0.593,0.759c0.328,0,0.593-0.34,0.593-0.759
			c0-0.069-0.009-0.134-0.023-0.198C21.682,225.287,21.973,225.051,21.973,224.763z"/>
		<path class="st0" d="M24.981,226.393c0.14-0.191,0.227-0.429,0.227-0.691c0-0.624-0.474-1.129-1.058-1.129
			c-0.232,0-0.445,0.082-0.62,0.218c-0.56,0.127-0.981,0.68-0.981,1.342c0,0.757,0.55,1.37,1.227,1.37
			C24.375,227.502,24.872,227.025,24.981,226.393z"/>
		<path class="st0" d="M31.162,237.186c-1.164,0-2.222,0.304-3.026,0.801c-0.385-0.484-0.972-0.801-1.639-0.801
			c-0.748,0-1.4,0.393-1.773,0.982c-0.328-0.072-0.668-0.114-1.021-0.114c-2.344,0-4.245,1.682-4.245,3.757
			c0,2.075,1.901,3.757,4.245,3.757c1.439,0,2.709-0.635,3.476-1.605c0.676,0.343,1.499,0.547,2.389,0.547
			c1.444,0,2.714-0.531,3.459-1.336c1.578-0.491,2.677-1.583,2.677-2.854C35.705,238.588,33.671,237.186,31.162,237.186z"/>
		<path class="st0" d="M44.683,231.001c0-1.932-1.53-3.499-3.418-3.499c-0.069,0-0.137,0.006-0.205,0.011
			c-0.078-0.77-0.983-1.38-2.101-1.38c-1.168,0-2.116,0.665-2.116,1.485c0,0.503,0.359,0.946,0.904,1.215
			c-1.214,0.679-2.043,2.038-2.043,3.606c0,2.247,1.7,4.069,3.797,4.069c1.578,0,2.93-1.031,3.504-2.499
			C44.009,233.399,44.683,232.282,44.683,231.001z"/>
		<path class="st0" d="M35.922,228.401c0-0.867-0.668-1.57-1.492-1.57c-0.736,0-1.344,0.562-1.466,1.299
			c-0.5,0.309-0.84,0.877-0.84,1.535c0,0.985,0.753,1.783,1.682,1.783s1.682-0.798,1.682-1.783c0-0.05-0.01-0.097-0.014-0.145
			C35.75,229.235,35.922,228.84,35.922,228.401z"/>
		<path class="st0" d="M36.139,224.722c0-0.427-0.422-0.773-0.943-0.773c-0.07,0-0.138,0.007-0.203,0.019
			c-0.189-0.163-0.451-0.263-0.739-0.263c-0.577,0-1.044,0.401-1.044,0.895c0,0.494,0.468,0.895,1.044,0.895
			c0.174,0,0.335-0.04,0.479-0.104c0.137,0.064,0.294,0.104,0.464,0.104C35.717,225.495,36.139,225.149,36.139,224.722z"/>
		<path class="st0" d="M23.628,216.049c-0.475,0-0.86,0.481-0.895,1.089c-0.604,0.152-1.051,0.658-1.051,1.264
			c0,0.727,0.638,1.316,1.424,1.316c0.786,0,1.424-0.589,1.424-1.316c0-0.2-0.052-0.387-0.138-0.557
			c0.086-0.18,0.138-0.392,0.138-0.62C24.53,216.576,24.126,216.049,23.628,216.049z"/>
		<path class="st0" d="M28.083,222.077c0.509,0,0.922-0.595,0.922-1.329c0-0.343-0.093-0.653-0.241-0.889
			c0.031-0.115,0.051-0.238,0.051-0.367c0-0.602-0.368-1.09-0.822-1.09c-0.454,0-0.822,0.488-0.822,1.09
			c0,0.211,0.047,0.405,0.125,0.572c-0.084,0.2-0.135,0.433-0.135,0.684C27.161,221.482,27.574,222.077,28.083,222.077z"/>
		<path class="st0" d="M30.281,216.222c-0.051,0.215-0.083,0.445-0.083,0.688c0,1.086,0.559,1.967,1.248,1.967
			c0.689,0,1.248-0.88,1.248-1.967c0-0.465-0.107-0.887-0.278-1.223c0.175-0.243,0.278-0.533,0.278-0.845
			c0-0.85-0.753-1.539-1.682-1.539c-0.929,0-1.682,0.689-1.682,1.539C29.331,215.451,29.72,215.973,30.281,216.222z"/>
		<path class="st0" d="M32.504,220.002c0,1.311,0.668,2.373,1.492,2.373c0.688,0,1.261-0.744,1.434-1.752
			c0.594,0.386,1.284,0.612,2.025,0.612c2.195,0,3.974-1.949,3.974-4.353c0-2.404-1.779-4.353-3.974-4.353
			c-2.195,0-3.974,1.949-3.974,4.353c0,0.295,0.027,0.583,0.078,0.861C32.95,218.043,32.504,218.935,32.504,220.002z"/>
		<path class="st1" d="M23.092,210.292c0.793,1.933,4.022,3.479,4.066-1.18c0.491,0.387,2.658-0.548,2.583-2.155
			c0.495,2.456-1.198,3.852-2.021,3.044c0.006,0.096,0.011,0.193,0.011,0.291c0,1.753-1.038,3.174-2.319,3.174
			C24.13,213.465,23.092,212.045,23.092,210.292c0-0.046,0.004-0.091,0.005-0.137"/>
		<path class="st1" d="M22.4,211.512c0.068,0.61-0.455,1.017-1.017,1.017c-0.516,0-0.938-0.386-1.004-0.883
			C20.875,212.204,21.988,212.143,22.4,211.512z"/>
		<path class="st1" d="M17.477,216.049c-0.023,0.967-0.706,1.751-1.581,1.767c-0.225,0.79-0.753,1.346-1.369,1.346
			c-0.685,0-1.255-0.689-1.427-1.622c0.015,0.179,0.023,0.36,0.023,0.543c0,2.82-1.803,5.106-4.028,5.106
			c-2.225,0-4.091-2.287-4.028-5.106c-0.002,2.502,3.891,5.103,5.045,2.95c0.61,0.366,1.749-0.353,1.604-1.316
			c0.582-0.442,1.341-1.503,1.346-3.103c0.629,1.538,2.063,1.829,2.52,1.019C16.311,217.529,16.955,217.134,17.477,216.049z"/>
		<path class="st1" d="M17.627,239.419c-0.283,1.896-1.715,3.34-3.445,3.34c-1.409,0-2.62-0.959-3.175-2.339
			c0.335,0.017,0.356-0.315,0.356-1.001c0.208,1.039,1.081,2.39,2.786,1.476C15.307,242.943,17.477,240.63,17.627,239.419z"/>
		<path class="st1" d="M16.013,226.831c0.004,0.547-0.563,0.994-1.289,1.064c-0.249,1.175-1.17,2.049-2.271,2.049
			c-1.292,0-2.345-1.202-2.339-2.685c0.814,1.684,3.454,2.099,4.119,0.083C14.792,227.719,15.687,227.496,16.013,226.831z"/>
		<path class="st1" d="M29.927,233.041c0,0.879-0.665,1.592-1.485,1.592c-0.608,0-1.129-0.393-1.359-0.954
			c-0.221,0.142-0.509,0.231-0.828,0.231c-0.691,0-1.21-0.407-1.251-0.905c0.42,0.749,2.079,0.674,2.153,0
			c0.308,0,0.746-0.193,0.924-0.559c0.117,0.264,0.3,0.203,0.402,0.163c-1.017,0.21-1.602,1.18-0.402,1.505
			C29.282,234.439,29.439,233.754,29.927,233.041z"/>
		<path class="st1" d="M18.562,220.355c0.009,0.721-0.471,1.32-1.094,1.45c-0.045,0.772-0.622,1.384-1.334,1.384
			c-0.742,0-1.364-0.662-1.343-1.478c0.667,0.661,1.976,0.745,2.267-0.129C17.641,221.52,18.307,221.226,18.562,220.355z"/>
		<path class="st1" d="M21.973,224.763c0.097,0.272-0.291,0.524-0.667,0.562c0.013,0.063,0.023,0.129,0.023,0.198
			c0,0.419-0.266,0.759-0.593,0.759c-0.328,0-0.589-0.34-0.593-0.759c0.347,0.61,1.033,0.384,1.075-0.385
			C21.576,225.259,21.82,224.95,21.973,224.763z"/>
		<path class="st1" d="M24.981,226.393c-0.109,0.632-0.606,1.109-1.204,1.109c-0.678,0-1.227-0.613-1.227-1.37
			C22.992,227.185,24.7,227.196,24.981,226.393z"/>
		<path class="st1" d="M35.705,240.318c0.003,1.271-1.1,2.363-2.677,2.854c-0.745,0.805-2.016,1.336-3.459,1.336
			c-0.89,0-1.713-0.203-2.389-0.547c-0.768,0.969-2.037,1.605-3.476,1.605c-2.344,0-4.301-1.683-4.245-3.757
			c1.204,2.619,5.314,2.847,7.144,1.132c0.561-0.676,0.062-1.382-0.457-1.569c1.081,0.457,1.559-0.125,1.767-0.728
			c-0.445,1.601,1.434,2.91,3.867,1.705c1.039,0.409,2.578-0.665,2.599-1.892C34.522,241.311,35.041,241.269,35.705,240.318z"/>
		<path class="st1" d="M44.683,231.001c0.041,1.28-0.674,2.398-1.677,3.007c-0.573,1.468-1.926,2.499-3.504,2.499
			c-2.097,0-3.797-1.822-3.797-4.069c0.217,1.471,1.383,1.546,1.729,1.316c-0.244,0.878,2.543,2.801,3.662,0.461
			c0.57,0.895,1.79-0.081,1.587-0.814C43.15,233.539,43.934,233.194,44.683,231.001z"/>
		<path class="st1" d="M35.474,229.52c0.004,0.049,0.014,0.095,0.014,0.145c0,0.985-0.753,1.783-1.682,1.783s-1.739-0.8-1.682-1.783
			C32.674,231.001,34.688,231.652,35.474,229.52z"/>
		<path class="st1" d="M24.53,218.402c-0.026,0.726-0.638,1.316-1.424,1.316c-0.786,0-1.424-0.589-1.424-1.316
			C22.224,219.435,24.014,219.338,24.53,218.402z"/>
		<path class="st1" d="M28.815,219.492c0.146,0.173,0.019,0.305-0.051,0.367c0.148,0.236,0.241,0.546,0.241,0.889
			c0,0.734-0.413,1.329-0.922,1.329s-0.967-0.596-0.922-1.329c0.475,0.787,1.858,0.895,1.465-0.827
			C28.779,219.797,28.806,219.673,28.815,219.492z"/>
		<path class="st1" d="M32.694,216.91c0.022,1.086-0.559,1.967-1.248,1.967c-0.689,0-1.248-0.88-1.248-1.967
			c0-0.243,0.032-0.473,0.083-0.688C30.619,217.921,32.124,218.402,32.694,216.91z"/>
		<path class="st1" d="M41.428,216.883c0.03,2.404-1.779,4.353-3.974,4.353c-0.741,0-1.431-0.226-2.025-0.612
			c-0.173,1.007-0.746,1.752-1.434,1.752c-0.824,0-1.492-1.063-1.492-2.373c0-1.067,0.446-1.959,1.055-2.258
			c-0.051-0.279-0.103-0.567-0.078-0.861c0.325,0.875,0.515,0.936,0.861,0.956c-0.793,0.183-1.486,0.72-0.888,1.987
			c0.57,1.207,1.987,0.943,1.804,0.19c1.099,0.671,4.659,0.739,4.842-1.614C40.77,218.402,41.157,218.002,41.428,216.883z"/>
	</g>
	<g id="frame_8">
		<path class="st0" d="M14.282,268.398c0-0.615-0.125-1.194-0.341-1.709c1.203-0.271,2.091-1.205,2.091-2.318
			c0-1.326-1.257-2.401-2.807-2.401s-2.807,1.075-2.807,2.401c0,0.076,0.005,0.152,0.013,0.226c-1.533,0.322-2.699,1.9-2.699,3.802
			c0,2.135,1.466,3.865,3.275,3.865C12.816,272.263,14.282,270.533,14.282,268.398z"/>
		<path class="st0" d="M24.169,261.074c0.222,0,0.432-0.034,0.634-0.082c0.178,0.05,0.367,0.082,0.566,0.082
			c0.933,0,1.689-0.592,1.689-1.322c0-0.516-0.381-0.957-0.93-1.175c-0.36-0.567-1.098-0.961-1.959-0.961
			c-1.213,0-2.197,0.774-2.197,1.729S22.955,261.074,24.169,261.074z"/>
		<path class="st0" d="M36.222,270.758c1.444,0,2.614-1.17,2.614-2.614c0-0.53-0.16-1.021-0.431-1.433
			c0-0.014,0.004-0.028,0.004-0.042c0-1.449-1.029-2.624-2.299-2.624c-1.27,0-2.299,1.175-2.299,2.624
			c0,0.136,0.018,0.266,0.035,0.397c-0.15,0.33-0.238,0.693-0.238,1.078C33.608,269.587,34.778,270.758,36.222,270.758z"/>
		<path class="st0" d="M30.76,286.422c-1.181,0-2.203,0.425-2.71,1.047c-0.12-0.591-0.829-1.047-1.695-1.047
			c-0.764,0-1.404,0.356-1.628,0.845c-0.156-0.019-0.314-0.032-0.477-0.032c-1.775,0-3.214,1.166-3.214,2.604
			c0,1.438,1.439,2.604,3.214,2.604c1.408,0,2.601-0.734,3.036-1.755c0.5,0.232,1.14,0.372,1.839,0.372
			c1.104,0,2.064-0.349,2.552-0.862c1.237-0.247,2.134-0.979,2.134-1.843C33.811,287.287,32.445,286.422,30.76,286.422z"/>
		<path class="st0" d="M16.025,285.521c-0.033-1.307-0.789-2.354-1.723-2.354c-0.955,0-1.729,1.093-1.729,2.441
			c0,0.858,0.315,1.61,0.789,2.045c-0.004,0.055-0.016,0.107-0.016,0.162c0,1.286,1.043,2.329,2.329,2.329
			c1.286,0,2.329-1.043,2.329-2.329C18.005,286.649,17.145,285.691,16.025,285.521z"/>
		<path class="st0" d="M42.274,279.017c0-1.316-1.386-2.382-3.103-2.399c-0.005-0.833-0.681-1.507-1.515-1.507
			c-0.837,0-1.516,0.679-1.516,1.516c0,0.397,0.156,0.756,0.406,1.026c-0.182,0.201-0.326,0.423-0.421,0.662
			c-0.476,0.589-0.768,1.36-0.768,2.208c0,1.843,1.366,3.336,3.051,3.336c1.652,0,2.995-1.437,3.047-3.23
			C41.963,280.202,42.274,279.638,42.274,279.017z"/>
		<path class="st0" d="M15.299,267.615c0,0.635,0.515,1.149,1.149,1.149c0.527,0,0.967-0.357,1.102-0.841
			c0.274-0.203,0.454-0.526,0.454-0.893c0-0.615-0.499-1.114-1.114-1.114c-0.476,0-0.879,0.3-1.039,0.72
			C15.522,266.838,15.299,267.199,15.299,267.615z"/>
		<path class="st0" d="M16.032,276.21c0-0.225-0.392-0.407-0.875-0.407c-0.03,0-0.058,0.003-0.087,0.004
			c-0.17-0.408-0.572-0.696-1.042-0.696c-0.624,0-1.129,0.505-1.129,1.129c0,0.367,0.178,0.691,0.45,0.897
			c0.013,0.704,0.443,1.27,0.974,1.27c0.539,0,0.976-0.583,0.976-1.302c0-0.174-0.027-0.34-0.073-0.491
			C15.676,276.597,16.032,276.423,16.032,276.21z"/>
		<path class="st0" d="M17.801,280.115c-0.326,0-0.59,0.21-0.59,0.468c0,0.258,0.264,0.468,0.59,0.468c0.326,0,0.59-0.209,0.59-0.468
			C18.391,280.325,18.127,280.115,17.801,280.115z"/>
		<circle class="st0" cx="17.552" cy="278.971" r="0.453"/>
		<path class="st0" d="M17.908,276.238c-0.414,0-0.75,0.336-0.75,0.75c0,0.414,0.336,0.75,0.75,0.75c0.414,0,0.75-0.336,0.75-0.75
			C18.658,276.573,18.323,276.238,17.908,276.238z"/>
		<path class="st0" d="M16.703,271.96c0,0.414,0.336,0.75,0.75,0.75c0.414,0,0.75-0.336,0.75-0.75c0-0.414-0.336-0.75-0.75-0.75
			C17.039,271.21,16.703,271.546,16.703,271.96z"/>
		<path class="st0" d="M18.635,269.822c-0.472,0-0.854,0.311-0.854,0.694c0,0.383,0.383,0.694,0.854,0.694
			c0.472,0,0.854-0.311,0.854-0.694C19.49,270.133,19.107,269.822,18.635,269.822z"/>
		<path class="st0" d="M19.632,268.764c-0.213,0-0.387,0.173-0.387,0.386c0,0.214,0.173,0.387,0.387,0.387s0.387-0.173,0.387-0.387
			C20.019,268.937,19.846,268.764,19.632,268.764z"/>
		<ellipse class="st0" cx="20.527" cy="282.089" rx="0.509" ry="0.224"/>
		<path class="st0" d="M23.074,282.621c-0.551,0-0.997,0.191-0.997,0.427s0.446,0.427,0.997,0.427s0.997-0.191,0.997-0.427
			S23.625,282.621,23.074,282.621z"/>
		<path class="st0" d="M21.809,282.355c0-0.147-0.209-0.266-0.468-0.266s-0.468,0.119-0.468,0.266c0,0.147,0.21,0.266,0.468,0.266
			S21.809,282.502,21.809,282.355z"/>
		<path class="st0" d="M26.88,280.974c-0.111-0.04-0.236-0.066-0.372-0.066c-0.438,0-0.793,0.241-0.793,0.539
			s0.355,0.539,0.793,0.539c0.145,0,0.279-0.028,0.397-0.075c0.223,0.229,0.6,0.38,1.027,0.38c0.685,0,1.241-0.387,1.241-0.865
			c0-0.478-0.556-0.865-1.241-0.865C27.486,280.563,27.099,280.728,26.88,280.974z"/>
		<path class="st0" d="M34.401,277.593c0-0.629-0.446-1.139-0.997-1.139c-0.528,0-0.955,0.47-0.99,1.063
			c-0.354,0.196-0.597,0.569-0.597,1.002c0,0.635,0.515,1.149,1.149,1.149c0.635,0,1.149-0.515,1.149-1.149
			c0-0.04-0.008-0.077-0.012-0.116C34.288,278.196,34.401,277.91,34.401,277.593z"/>
		<ellipse class="st0" cx="24.047" cy="275.294" rx="0.773" ry="0.915"/>
		<ellipse class="st0" cx="21.646" cy="274.643" rx="0.61" ry="0.468"/>
		<path class="st0" d="M24.19,267.177c-0.328,0-0.588,0.194-0.618,0.44c-0.004,0-0.008-0.002-0.011-0.002
			c-0.269,0-0.486,0.43-0.486,0.961c0,0.531,0.218,0.961,0.486,0.961c0.269,0,0.486-0.43,0.486-0.961
			c0-0.169-0.024-0.326-0.063-0.464c0.065,0.018,0.133,0.032,0.206,0.032c0.348,0,0.63-0.216,0.63-0.483
			S24.538,267.177,24.19,267.177z"/>
		<path class="st0" d="M21.941,263.678c0.331,0,0.6-0.346,0.6-0.773s-0.269-0.773-0.6-0.773c-0.331,0-0.6,0.346-0.6,0.773
			S21.61,263.678,21.941,263.678z"/>
		<path class="st0" d="M26.691,262.824c0-0.277-0.191-0.52-0.482-0.676c-0.089-0.402-0.534-0.707-1.072-0.707
			c-0.602,0-1.091,0.383-1.091,0.854c0,0.186,0.078,0.358,0.208,0.498c-0.001,0.01-0.004,0.02-0.004,0.031
			c0,0.472,0.546,0.854,1.221,0.854C26.145,263.678,26.691,263.296,26.691,262.824z"/>
		<path class="st0" d="M29.967,267.03c0.012,0,0.023-0.004,0.035-0.004c-0.021,0.1-0.035,0.204-0.035,0.315
			c0,0.584,0.314,1.058,0.702,1.058s0.702-0.474,0.702-1.058c0-0.551-0.281-0.999-0.638-1.048c0.017-0.079,0.028-0.161,0.028-0.246
			c0-0.543-0.355-0.984-0.793-0.984c-0.438,0-0.793,0.441-0.793,0.984C29.173,266.589,29.528,267.03,29.967,267.03z"/>
		<path class="st0" d="M27.17,270.306c-0.069,0.068-0.112,0.145-0.112,0.228c0,0.258,0.383,0.468,0.854,0.468
			c0.472,0,0.854-0.209,0.854-0.468s-0.383-0.468-0.854-0.468c-0.009,0-0.017,0.001-0.025,0.001c0.015-0.071,0.025-0.146,0.025-0.225
			c0-0.382-0.191-0.692-0.427-0.692s-0.427,0.31-0.427,0.692C27.058,270.021,27.101,270.183,27.17,270.306z"/>
		<path class="st0" d="M32.494,273.728c-0.261,0-0.473,0.273-0.473,0.61s0.212,0.61,0.473,0.61c0.261,0,0.473-0.273,0.473-0.61
			S32.755,273.728,32.494,273.728z"/>
		<ellipse class="st0" cx="34.096" cy="274.084" rx="0.692" ry="0.559"/>
		<path class="st0" d="M32.446,271.21c0.03,0,0.058-0.006,0.087-0.009c0.114,0.1,0.26,0.166,0.424,0.166
			c0.36,0,0.651-0.291,0.651-0.651c0-0.185-0.079-0.351-0.204-0.469c-0.002-0.528-0.43-0.955-0.958-0.955
			c-0.529,0-0.959,0.429-0.959,0.959C31.487,270.781,31.916,271.21,32.446,271.21z"/>
		<path class="st1" d="M13.941,266.688c0.216,0.516,0.341,1.095,0.341,1.709c0,2.135-1.466,3.865-3.275,3.865
			c-1.809,0-3.46-1.739-3.275-3.865c0.488,1.729,2.095,3.397,3.377,2.584c0.915,0.956,1.872-0.387,1.322-0.936
			c1.017-0.163,1.022-0.346,0.918-0.651C13.957,269.354,14.271,268.336,13.941,266.688z"/>
		<path class="st1" d="M38.409,266.669c0,0.014,0.427,0.945,0.427,1.475c0,1.444-1.17,2.614-2.614,2.614
			c-1.444,0-2.614-1.17-2.614-2.614c0.367,1.332,2.17,2.18,2.767,1.556c0.841,0.271,1.655-0.488,1.248-0.936
			c0.814-0.393,1.193-1.642,0.651-2.076C38.409,266.669,38.409,266.669,38.409,266.669z"/>
		<path class="st1" d="M33.811,288.354c0.075,0.862-0.897,1.597-2.134,1.843c-0.489,0.513-1.448,0.862-2.552,0.862
			c-0.698,0-1.338-0.14-1.839-0.372c-0.435,1.021-1.628,1.755-3.036,1.755c-1.775,0-3.364-1.174-3.214-2.604
			c0.583,1.153,2.238,2.319,3.73,1.126c0.949,0.244,2.116-0.705,0.434-1.6c1.085,0.271,2.251,0.19,2.902-0.787
			c-0.658,1.329,0.225,2.271,2.902,1.302c0.353,0.108,1.655,0.054,1.79-1.356C32.957,289.094,33.608,288.822,33.811,288.354z"/>
		<path class="st1" d="M16.025,285.521c1.119,0.17,1.979,1.127,1.979,2.294c0,1.286-1.043,2.329-2.329,2.329
			c-1.286,0-2.329-1.043-2.329-2.329c0-0.056,0.013-0.108,0.016-0.162c0.39,0.925,1.53,2.091,2.723,1.115
			c0.705,0.027,1.492-0.217,1.302-1.139C17.659,287.52,17.864,286.479,16.025,285.521z"/>
		<path class="st1" d="M42.274,279.017c0.108,0.612-0.312,1.185-0.819,1.612c-0.052,1.793-1.394,3.23-3.047,3.23
			c-1.685,0-3.051-1.494-3.051-3.336c0.865,1.77,2.631,3.126,4.353,1.77c0.515,0.264,0.976-0.047,0.868-0.854
			c0.353-0.156,0.759-0.671,0.651-1.295C41.583,280.034,42.202,279.668,42.274,279.017z"/>
		<path class="st1" d="M18.005,267.03c0.062,0.362-0.18,0.69-0.454,0.893c-0.135,0.484-0.575,0.841-1.102,0.841
			c-0.635,0-1.133-0.515-1.149-1.149c0.692,0.743,1.729,0.743,1.953,0.153C17.578,267.727,17.934,267.478,18.005,267.03z"/>
		<path class="st1" d="M15.226,276.613c0.047,0.152,0.073,0.317,0.073,0.491c0,0.719-0.437,1.302-0.976,1.302
			c-0.531,0-0.961-0.566-0.974-1.27C13.794,277.756,14.909,277.912,15.226,276.613z"/>
		<path class="st1" d="M29.173,281.428c-0.108,0.465-0.556,0.865-1.241,0.865c-0.427,0-0.804-0.151-1.027-0.38
			c-0.117,0.046-0.251,0.075-0.397,0.075c-0.438,0-0.933-0.276-0.793-0.539c0.325,0.268,0.814,0.403,1.248,0.132
			C27.261,281.86,28.427,281.879,29.173,281.428z"/>
		<path class="st1" d="M34.401,277.593c0.043,0.314-0.114,0.603-0.296,0.81c0.004,0.039,0.012,0.076,0.012,0.116
			c0,0.635-0.515,1.149-1.149,1.149c-0.635,0-1.262-0.525-1.149-1.149c0.787,0.498,1.98,0.892,2.143-0.302
			C34.151,278.108,34.353,277.996,34.401,277.593z"/>
	</g>
	<g id="frame_9">
		<path class="st0" d="M13.13,316.071c0.864-0.067,1.547-0.781,1.547-1.663c0-0.925-0.75-1.676-1.676-1.676
			c-0.925,0-1.676,0.75-1.676,1.676c0,0.128,0.017,0.252,0.045,0.372c-0.901,0.09-1.834,0.882-2.303,2.062
			c-0.603,1.516-0.214,3.094,0.868,3.525c1.083,0.431,2.449-0.449,3.052-1.965C13.317,317.576,13.342,316.738,13.13,316.071z"/>
		<path class="st0" d="M16.334,335.578c0.003-0.041,0.012-0.081,0.012-0.123c0-0.924-0.749-1.672-1.672-1.672
			s-1.672,0.749-1.672,1.672c0,0.751,0.499,1.379,1.181,1.59c0,0.005-0.002,0.009-0.002,0.014c0,0.85,0.767,1.539,1.713,1.539
			c0.946,0,1.713-0.689,1.713-1.539C17.606,336.347,17.065,335.753,16.334,335.578z"/>
		<path class="st0" d="M29.695,337.059c-0.891,0-1.697,0.226-2.278,0.591c-0.257-0.12-0.554-0.194-0.875-0.194
			c-0.609,0-1.14,0.251-1.444,0.625c-0.128-0.017-0.258-0.03-0.393-0.03c-1.261,0-2.284,0.767-2.284,1.713s1.022,1.713,2.284,1.713
			c1.11,0,2.033-0.594,2.239-1.382c0.01-0.002,0.02-0.005,0.03-0.007c0.565,0.565,1.57,0.942,2.72,0.942
			c1.768,0,3.202-0.889,3.202-1.986S31.463,337.059,29.695,337.059z"/>
		<path class="st0" d="M40.865,329.637c0-0.209-0.035-0.404-0.093-0.58c0.006-0.055,0.018-0.108,0.018-0.165
			c0-1.001-0.889-1.812-1.986-1.812c-1.078,0-1.95,0.785-1.98,1.762c-0.37,0.393-0.601,0.919-0.601,1.502
			c0,1.213,0.984,2.197,2.197,2.197c1.129,0,2.048-0.855,2.172-1.951C40.759,330.351,40.865,330.013,40.865,329.637z"/>
		<path class="st0" d="M38.42,318.724c0-0.34-0.097-0.655-0.253-0.931c0.039-0.155,0.067-0.314,0.067-0.481
			c0-1.076-0.872-1.949-1.949-1.949c-1.076,0-1.949,0.872-1.949,1.949c0,0.39,0.117,0.752,0.315,1.057
			c-0.022,0.115-0.036,0.233-0.036,0.355c0,1.05,0.852,1.902,1.902,1.902C37.568,320.626,38.42,319.775,38.42,318.724z"/>
		<path class="st0" d="M25.003,310.896c0.932,0,1.688-0.545,1.688-1.216c0-0.672-0.756-1.216-1.688-1.216
			c-0.932,0-1.688,0.545-1.688,1.216C23.315,310.351,24.071,310.896,25.003,310.896z"/>
		<path class="st1" d="M14.677,314.408c-0.11,0.82-0.683,1.596-1.547,1.663c0.213,0.667,0.187,1.506-0.141,2.332
			c-0.603,1.516-1.97,2.395-3.052,1.965c-1.083-0.431-1.491-2.017-0.868-3.525c-0.156,1.417,0.678,3.553,2.55,2.21
			c0.427,0.163,1.546-0.326,1.261-2.909c0.081-0.224-0.203-0.285-0.366-0.285C13.225,315.818,14.388,315.022,14.677,314.408z"/>
		<path class="st1" d="M17.606,337.059c-0.038,0.849-0.767,1.539-1.713,1.539c-0.946,0-1.713-0.689-1.713-1.539
			c0-0.005,0.001-0.009,0.002-0.014c-0.682-0.211-1.181-0.839-1.181-1.59c0.304,0.955,0.864,1.236,1.378,1.236
			c0,0.336,0.961,1.973,2.345,0.854C17.11,337.626,17.334,337.402,17.606,337.059z"/>
		<path class="st1" d="M32.897,339.045c-0.058,1.095-1.434,1.986-3.202,1.986c-1.15,0-2.156-0.377-2.72-0.942
			c-0.01,0.002-0.02,0.005-0.03,0.007c-0.206,0.787-1.129,1.382-2.239,1.382c-1.261,0-2.284-0.767-2.284-1.713
			c0.995,1.279,3.273,1.463,3.965,0.496c0.509-0.014,0.203-0.56-0.081-0.641c0.808,0.081,1.18,0.224,1.726-0.575
			c-0.363,0.941,1,2.02,2.526,1.308c0.387,0.142,0.509-0.509,0.122-0.753C31.472,339.966,32.286,339.864,32.897,339.045z"/>
		<path class="st1" d="M40.772,329.057c0.057,0.176,0.093,0.371,0.093,0.58c0,0.376-0.106,0.714-0.273,0.953
			c-0.124,1.096-1.043,1.951-2.172,1.951c-1.213,0-2.229-0.984-2.197-2.197c0.596,1.647,3.204,2.64,4.038,0.211
			C40.652,330.491,40.778,329.002,40.772,329.057z"/>
		<path class="st1" d="M38.167,317.793c0.156,0.276,0.253,0.591,0.253,0.931c0,1.05-0.852,1.902-1.902,1.902
			c-1.05,0-1.902-0.852-1.902-1.902c0-0.122,0.014-0.24,0.036-0.355c0.157,0.806,1.581,2.372,2.904,0.948
			C37.982,319.399,38.412,318.649,38.167,317.793z"/>
		<path class="st1" d="M26.691,309.68c0.06,0.219-0.756,1.216-1.688,1.216c-0.932,0-1.61-0.549-1.688-1.216
			C23.985,310.632,25.329,311.017,26.691,309.68z"/>
		<circle class="st0" cx="15.236" cy="326.298" r="0.856"/>
		<circle class="st0" cx="23.228" cy="332.181" r="0.36"/>
		<ellipse class="st0" cx="27.113" cy="330.953" rx="0.918" ry="0.397"/>
		<circle class="st0" cx="33.294" cy="327.924" r="0.844"/>
		<ellipse class="st0" cx="36.819" cy="326.038" rx="0.894" ry="0.627"/>
		<ellipse class="st0" cx="32.45" cy="320.477" rx="0.571" ry="0.844"/>
		<ellipse class="st0" cx="29.968" cy="317.151" rx="0.422" ry="0.844"/>
		<ellipse class="st0" cx="25.524" cy="312.584" rx="0.869" ry="0.695"/>
		<circle class="st0" cx="22.372" cy="313.527" r="0.496"/>
		<circle class="st0" cx="17.184" cy="317.722" r="0.869"/>
		<circle class="st0" cx="17.979" cy="321.693" r="0.373"/>
		<circle class="st0" cx="19.431" cy="320.663" r="0.658"/>
		<circle class="st0" cx="24.271" cy="318.504" r="0.385"/>
		<circle class="st0" cx="24.37" cy="325.194" r="0.633"/>
	</g>
	<g id="frame_10">
		<path class="st0" d="M35.131,366.582c-0.614,0-1.112,0.753-1.112,1.682c0,0.929,0.498,1.682,1.112,1.682
			c0.614,0,1.112-0.753,1.112-1.682C36.243,367.335,35.745,366.582,35.131,366.582z"/>
		<path class="st0" d="M27.807,387.264c-0.659,0-1.198,0.399-1.284,0.916c-0.224-0.115-0.535-0.173-0.876-0.14
			c-0.637,0.062-1.125,0.411-1.089,0.78c0.036,0.369,0.581,0.618,1.219,0.556c0.434-0.042,0.794-0.219,0.972-0.443
			c0.236,0.269,0.621,0.446,1.059,0.446c0.719,0,1.302-0.474,1.302-1.058C29.109,387.737,28.526,387.264,27.807,387.264z"/>
		<path class="st0" d="M14.824,384.578c-0.492,0-0.891,0.399-0.891,0.891c0,0.274,0.127,0.517,0.322,0.68
			c0.121,0.318,0.427,0.545,0.787,0.545c0.466,0,0.844-0.378,0.844-0.844c0-0.198-0.071-0.379-0.186-0.523
			C15.632,384.903,15.267,384.578,14.824,384.578z"/>
		
			<ellipse transform="matrix(0.0977 -0.9952 0.9952 0.0977 -343.658 379.3847)" class="st0" cx="37.389" cy="379.208" rx="1.343" ry="0.834"/>
		<path class="st0" d="M32.181,377.54c-0.258,0-0.468,0.209-0.468,0.468c0,0.258,0.209,0.468,0.468,0.468
			c0.258,0,0.468-0.21,0.468-0.468C32.649,377.749,32.439,377.54,32.181,377.54z"/>
		<circle class="st0" cx="31.062" cy="370.745" r="0.407"/>
		<ellipse class="st0" cx="25.152" cy="364.154" rx="0.559" ry="0.407"/>
		<path class="st0" d="M17.432,367.978c-0.292,0-0.529,0.182-0.529,0.407s0.237,0.407,0.529,0.407c0.292,0,0.529-0.182,0.529-0.407
			S17.724,367.978,17.432,367.978z"/>
		<path class="st0" d="M15.683,375.302c-0.27,0-0.488,0.219-0.488,0.488s0.219,0.488,0.488,0.488c0.27,0,0.488-0.219,0.488-0.488
			S15.952,375.302,15.683,375.302z"/>
		<path class="st0" d="M12.682,365.049c-0.286,0-0.519,0.232-0.519,0.519c0,0.063,0.015,0.122,0.036,0.178
			c-0.012-0.001-0.024-0.005-0.036-0.005c-0.416,0-0.753,0.428-0.753,0.956c0,0.528,0.337,0.956,0.753,0.956s0.753-0.428,0.753-0.956
			c0-0.238-0.071-0.453-0.184-0.62c0.262-0.026,0.469-0.24,0.469-0.509C13.201,365.281,12.968,365.049,12.682,365.049z"/>
		<ellipse class="st0" cx="24.552" cy="361.123" rx="0.895" ry="0.509"/>
	</g>
</svg>
